<svg xmlns="http://www.w3.org/2000/svg" width="200" height="200" viewBox="0 0 200 200">
  <g>
    <path d="M99.73,79.14a3.59,3.59,0,0,0-3.09,1.77,3.45,3.45,0,0,0-.36,2.42c1.09,6,2,12.1,2.71,18.15q.41,3.51.74,7.07c.21-2.37.46-4.73.73-7.07.71-6,1.62-12.16,2.72-18.15a3.56,3.56,0,0,0-.36-2.42A3.61,3.61,0,0,0,99.73,79.14Z" fill="#fcc800"/>
    <path d="M111.13,124.06l9.92-11.45a18,18,0,0,0,3.68-14,2,2,0,0,0-.8-1.3,2,2,0,0,0-1.49-.36,17.54,17.54,0,0,0-2.88.71l-3.78,1.26,2.53-3.08a17.89,17.89,0,0,0,3.78-14.66,2,2,0,0,0-2.34-1.61,18.17,18.17,0,0,0-4.2,1.33l-3.73,1.71,2.3-3.4a17.58,17.58,0,0,0,.16-19.53,1.95,1.95,0,0,0-2.7-.56A17.07,17.07,0,0,0,110,60.29l-1.75,1.45-.13-2.27a19.27,19.27,0,0,0-8.47-14.92,19.25,19.25,0,0,0-8.42,15l-.12,2.27-1.76-1.44a17.18,17.18,0,0,0-1.62-1.19,1.94,1.94,0,0,0-2.69.58,17.58,17.58,0,0,0,.24,19.53l2.31,3.38-3.73-1.69a17.81,17.81,0,0,0-4.22-1.31,2,2,0,0,0-1.49.32,2.05,2.05,0,0,0-.84,1.29A18,18,0,0,0,81.13,95.9L83.66,99l-3.78-1.25A17.51,17.51,0,0,0,77,97a2,2,0,0,0-2.29,1.67,18,18,0,0,0,3.76,14l10,11.43,8.68,9c.88.88,1.75,1.77,2.6,2.67q2.44-2.58,5-5.07Zm-11.4-5.43h0C98,110,97.54,108.35,96.21,99.68,95,91.52,95,91.17,93.51,83A7.41,7.41,0,0,1,94,78a6.53,6.53,0,0,1,11.43,0,7.88,7.88,0,0,1,.54,5.16c-1.48,8.14-1.64,9.49-2.73,16.37C101.85,108.33,101.46,109.87,99.73,118.63Z" fill="#66b5e6"/>
    <path d="M73.57,106.7c-7.85-6.49-15.26-13.35-22.82-20.07-5.7-5.21-11.67-10.08-16.61-16.2a20.43,20.43,0,0,1-4-7.85C28.32,53.69,32.72,43,41.89,40.27,54.32,36.69,67.59,48,62,60.78a14.9,14.9,0,0,1-5.09,6.08c3.74-5.68,4.11-14-1.64-18.24-4.63-3.4-12.23-3.87-16,1a15.47,15.47,0,0,0-3,11.65c.7,3.79,4,7.58,7.22,11.25,10.36,11,20.73,22.28,30.13,34.17Z" fill="#66b5e6"/>
    <path d="M125.82,106.64c9.37-11.92,19.71-23.22,30-34.25,3.26-3.68,6.51-7.48,7.2-11.27a15.45,15.45,0,0,0-3-11.64c-3.8-4.87-11.41-4.38-16-1-5.74,4.26-5.35,12.57-1.59,18.24a14.82,14.82,0,0,1-5.11-6.06c-5.67-12.75,7.57-24.11,20-20.57,9.17,2.67,13.59,13.39,11.76,22.28a20.33,20.33,0,0,1-3.94,7.87c-4.93,6.13-10.89,11-16.58,16.24-7.53,6.73-14.93,13.61-22.76,20.13Z" fill="#66b5e6"/>
    <g>
      <path d="M74.06,114l-3.2-2.87c-8.14-6.77-26-21.57-27.27-22.33a6.42,6.42,0,0,0-6.47,11.08c1.31.77,23,9,32.86,12.75Z" fill="#fcc800"/>
      <path d="M125.35,114l3.19-2.88c8.12-6.79,25.91-21.63,27.21-22.4a6.41,6.41,0,0,1,6.5,11.06c-1.31.77-22.94,9.06-32.83,12.83Z" fill="#fcc800"/>
    </g>
    <path d="M99.73,145.92A106.24,106.24,0,0,0,83.2,131.14c-5.85-4.27-12.07-8.23-18.86-10.59A73.23,73.23,0,0,0,50.57,117a38.2,38.2,0,0,0-31.45,10.37c-2.68,2.51-4.89,5.92-8.14,8.07-3.61,2.46-8.39.78-11-2.3,9.23,5.55,11.08-2.5,15.85-8.63A37.83,37.83,0,0,1,43.51,110a42.27,42.27,0,0,1,15.7,2.7c9.89,3,18.68,8.82,26.08,15.89a81.87,81.87,0,0,1,14.44,17.35Z" fill="#66b5e6"/>
    <path d="M30.79,122.58c-5.49,4.74-12.1,14.5-11.09,21.8.7,5.83,9.7,13.6,14.93,8.31,4.49-4.16,1.38-10.11-3.84-11.88a9.14,9.14,0,0,1,9.78,6.94c1,5-2,9.93-6.63,12C28.3,162.06,22,159,18.21,155.05c-5.62-5.58-6-13.9-2.07-20.35a28.55,28.55,0,0,1,6.34-7.5c2.46-2,5.18-4,8.31-4.62Z" fill="#66b5e6"/>
    <path d="M86.06,136.25c-8.29-3.74-22.14-6.21-26.21,4.08-1.17,3.1-2.62,8,1,9.57,4.72,2.13,7.36-3.45,5.73-7.83a7.76,7.76,0,0,1,2,8.5c-2.13,5.6-10.27,6.15-14.21,1.87a9.23,9.23,0,0,1-2.3-5.44,16.16,16.16,0,0,1,5.48-13.26c8.49-6.71,20.65-2.92,28.5,2.51Z" fill="#66b5e6"/>
    <path d="M99.76,145.92a81.85,81.85,0,0,1,14.4-17.39c7.38-7.08,16.15-12.87,26-16a42.27,42.27,0,0,1,15.7-2.74,37.8,37.8,0,0,1,27.69,14.5c4.79,6.12,6.65,14.16,15.88,8.59-2.59,3.08-7.35,4.79-11,2.32-3.26-2.14-5.47-5.54-8.16-8a38.19,38.19,0,0,0-31.47-10.29,73.32,73.32,0,0,0-13.77,3.54c-6.78,2.38-13,6.36-18.83,10.64a105.71,105.71,0,0,0-16.49,14.82Z" fill="#66b5e6"/>
    <path d="M168.63,122.4c8.78,2.4,18,12.74,17.32,22.38-.62,7.6-6.71,13.9-14.24,15.41-7.05,1.56-14.32-5.47-12.79-12.59a9.14,9.14,0,0,1,9.77-7c-5.22,1.78-8.32,7.74-3.82,11.88,5.25,5.28,14.23-2.51,14.92-8.34,1-7.31-5.64-17-11.16-21.78Z" fill="#66b5e6"/>
    <path d="M113.4,136.22c7.84-5.45,20-9.27,28.5-2.59a16.17,16.17,0,0,1,5.51,13.25,9.27,9.27,0,0,1-2.29,5.45c-3.93,4.29-12.07,3.75-14.21-1.84a7.75,7.75,0,0,1,2-8.5c-1.62,4.38,1,10,5.75,7.82,3.62-1.55,2.16-6.48,1-9.58-4.11-10.28-17.94-7.77-26.23-4Z" fill="#66b5e6"/>
  </g>
</svg>
