<svg xmlns="http://www.w3.org/2000/svg" width="200" height="200" viewBox="0 0 200 200">
  <g>
    <circle cx="100" cy="99.82" r="12.1" fill="#fcc800"/>
    <path d="M133.25,51.76c-4.08-5.49-10.54-11-18.3-13-10.74-2.72-18.16,2.92-25.23-1.32-8.31-5-10.78-17.19-10.78-17.19a44,44,0,0,1,3.22-3.63L100-.36l20.73,21.15A44.24,44.24,0,0,1,133.25,51.76Z" fill="#fcc800"/>
    <path d="M148.06,133.07c5.5-4.08,11-10.54,13-18.3,2.72-10.73-2.92-18.16,1.33-25.23,5-8.3,17.19-10.78,17.19-10.78A43.79,43.79,0,0,1,183.19,82l17,17.83L179,120.55A44.24,44.24,0,0,1,148.06,133.07Z" fill="#fcc800"/>
    <path d="M66.75,147.88c4.08,5.5,10.54,11,18.3,13,10.74,2.72,18.16-2.93,25.23,1.32,8.31,5,10.78,17.19,10.78,17.19a43.65,43.65,0,0,1-3.22,3.62L100,200,79.27,178.85A44.27,44.27,0,0,1,66.75,147.88Z" fill="#fcc800"/>
    <path d="M51.94,66.57c-5.5,4.08-11,10.55-13,18.3-2.72,10.74,2.92,18.16-1.32,25.24-5,8.3-17.2,10.77-17.2,10.77a43.65,43.65,0,0,1-3.62-3.22l-17-17.84L21,79.09A44.28,44.28,0,0,1,51.94,66.57Z" fill="#fcc800"/>
    <path d="M175.27,75.45A42.78,42.78,0,0,0,139,67.77,39.54,39.54,0,0,0,126.83,73a41.85,41.85,0,0,0,6.45-21.29c-5.26-7.3-13.3-13.17-22.56-13.8-5.33-.57-10.88,1.25-15.77.87C87.84,38,83.8,32,81.08,25.37L79,20.22l-3.34,4.33a42.82,42.82,0,0,0-7.69,36.31A39.8,39.8,0,0,0,73.18,73a42,42,0,0,0-21.3-6.45c-7.3,5.27-13.16,13.3-13.79,22.56-.57,5.33,1.25,10.88.87,15.78C38.17,112,32.13,116,25.55,118.75l-5.15,2.11,4.33,3.33A42.82,42.82,0,0,0,61,131.88a39.56,39.56,0,0,0,12.13-5.24,42,42,0,0,0-6.45,21.3C72,155.24,80,161.1,89.28,161.73c5.33.58,10.88-1.24,15.77-.87,7.11.79,11.15,6.83,13.88,13.41l2.1,5.15,3.34-4.33a42.82,42.82,0,0,0,7.69-36.31,39.67,39.67,0,0,0-5.24-12.13,41.89,41.89,0,0,0,21.3,6.45c7.3-5.26,13.16-13.3,13.79-22.55.57-5.34-1.25-10.88-.87-15.78.79-7.11,6.83-11.15,13.41-13.87l5.15-2.11Zm-19.67,14c-1.67,4.25-1.19,9.08-.46,13.39.82,5,.93,9.47-.9,14.09A30.05,30.05,0,0,1,146.33,128a41.07,41.07,0,0,1-23.55-7.6c-4.32-3.27-8.33-7.09-12.59-10.49l.47.55-.56-.47c1.91,2.33,3.85,4.62,5.81,6.9,13.3,13.56,16.22,34,6.56,49.85-2.71-5-6.63-9.4-12.1-11.33-4.25-1.68-9.08-1.2-13.39-.47-5,.83-9.47.93-14.09-.9a29.94,29.94,0,0,1-11.08-7.91,41,41,0,0,1,7.59-23.54c3.27-4.33,7.1-8.34,10.5-12.6l-.56.47.47-.55q-3.48,2.86-6.89,5.8C69.35,129,49,132,33.07,122.3c5-2.71,9.39-6.64,11.33-12.11,1.67-4.25,1.19-9.08.46-13.39-.82-5-.93-9.46.9-14.09a30,30,0,0,1,7.91-11.08,41,41,0,0,1,23.55,7.59c4.32,3.27,8.33,7.1,12.59,10.5l-.47-.56.56.47Q87,86.15,84.09,82.74c-13.3-13.57-16.22-34-6.56-49.85,2.71,5,6.63,9.4,12.1,11.33,4.25,1.67,9.08,1.2,13.39.47,5-.83,9.47-.94,14.09.89a30.17,30.17,0,0,1,11.08,7.91A41,41,0,0,1,120.6,77c-3.27,4.33-7.1,8.34-10.5,12.59l.56-.47c-.16.19-.32.37-.47.56q3.48-2.86,6.89-5.81c13.57-13.3,34-16.21,49.85-6.56C162,80.06,157.54,84,155.6,89.45Z" fill="#0b318f"/>
    <path d="M100,85.1a14.6,14.6,0,0,1,6.39,1.48,8.56,8.56,0,1,0-12.77,0A14.66,14.66,0,0,1,100,85.1Z" fill="#0b318f"/>
    <path d="M114.73,99.82a14.6,14.6,0,0,1-1.48,6.39,8.45,8.45,0,0,0,5.69,2.17,8.56,8.56,0,1,0-5.69-14.94A14.52,14.52,0,0,1,114.73,99.82Z" fill="#0b318f"/>
    <path d="M100,114.55a14.54,14.54,0,0,1-6.39-1.48,8.56,8.56,0,1,0,12.77,0A14.59,14.59,0,0,1,100,114.55Z" fill="#0b318f"/>
    <path d="M85.27,99.83a14.6,14.6,0,0,1,1.48-6.39,8.57,8.57,0,1,0,0,12.77A14.81,14.81,0,0,1,85.27,99.83Z" fill="#0b318f"/>
    <path d="M178.27,64.8A1.31,1.31,0,0,1,177,63.48V22.87H136.34a1.32,1.32,0,0,1,0-2.63h41.93a1.32,1.32,0,0,1,1.32,1.31V63.48A1.32,1.32,0,0,1,178.27,64.8Z" fill="#fcc800"/>
    <path d="M172.8,64.8a1.32,1.32,0,0,1-1.32-1.32V28.34H136.34a1.32,1.32,0,0,1,0-2.63H172.8A1.31,1.31,0,0,1,174.11,27V63.48A1.32,1.32,0,0,1,172.8,64.8Z" fill="#fcc800"/>
    <path d="M178.27,179.41H136.34a1.32,1.32,0,0,1,0-2.63H177V136.16a1.32,1.32,0,0,1,2.63,0v41.93A1.32,1.32,0,0,1,178.27,179.41Z" fill="#fcc800"/>
    <path d="M172.8,173.94H136.34a1.32,1.32,0,0,1,0-2.63h35.14V136.16a1.32,1.32,0,0,1,2.63,0v36.46A1.32,1.32,0,0,1,172.8,173.94Z" fill="#fcc800"/>
    <path d="M63.66,179.41H21.73a1.32,1.32,0,0,1-1.32-1.32V136.16a1.32,1.32,0,0,1,2.63,0v40.62H63.66a1.32,1.32,0,0,1,0,2.63Z" fill="#fcc800"/>
    <path d="M63.66,173.94H27.2a1.32,1.32,0,0,1-1.31-1.32V136.16a1.32,1.32,0,0,1,2.63,0v35.15H63.66a1.32,1.32,0,0,1,0,2.63Z" fill="#fcc800"/>
    <path d="M21.73,64.8a1.32,1.32,0,0,1-1.32-1.32V21.55a1.32,1.32,0,0,1,1.32-1.31H63.66a1.32,1.32,0,0,1,0,2.63H23V63.48A1.31,1.31,0,0,1,21.73,64.8Z" fill="#fcc800"/>
    <path d="M27.2,64.8a1.32,1.32,0,0,1-1.31-1.32V27a1.31,1.31,0,0,1,1.31-1.31H63.66a1.32,1.32,0,0,1,0,2.63H28.52V63.48A1.32,1.32,0,0,1,27.2,64.8Z" fill="#fcc800"/>
  </g>
</svg>
