<svg xmlns="http://www.w3.org/2000/svg" width="200" height="200" viewBox="0 0 200 200">
  <g>
    <circle cx="99.86" cy="100" r="12.08" fill="#fcc800"/>
    <path d="M150.1,89.55h0c6.92,0,11.75,4.3,11.75,10.45S157,110.45,150.1,110.45c-1,0-6-1.22-11.23-2.51-5.77-1.42-13.47-3.32-21.9-5.11a17.91,17.91,0,0,0,.23-2.83,17,17,0,0,0-.22-2.76c8.4-1.8,16.1-3.71,21.87-5.15,5-1.25,10.2-2.54,11.25-2.54m0-2.63c-2.8,0-18,4.51-36.33,8.31a14.6,14.6,0,0,1,0,9.62c18.4,3.77,33.54,8.23,36.36,8.23,8,0,14.38-5.12,14.38-13.08s-6.42-13.08-14.38-13.08Z" fill="#66b5e6"/>
    <path d="M110.81,113.45c5.76,6.37,11.27,12.08,15.4,16.36,3.59,3.72,7.3,7.57,7.82,8.47,3.46,6,2.15,12.32-3.18,15.4a10.1,10.1,0,0,1-5.1,1.43c-3.84,0-7.51-2.38-9.82-6.38-.53-.91-1.94-5.8-3.44-11-1.66-5.71-3.86-13.32-6.53-21.52a17.22,17.22,0,0,0,2.57-1.21,17.74,17.74,0,0,0,2.28-1.57m.14-3.79a14.58,14.58,0,0,1-3.73,3.08,14.77,14.77,0,0,1-4.62,1.7c5.94,17.83,9.64,33.17,11.05,35.61,2.77,4.79,7.29,7.69,12.1,7.69a12.73,12.73,0,0,0,6.42-1.78c6.89-4,8.12-12.09,4.14-19-1.4-2.42-12.91-13.33-25.36-27.31Z" fill="#66b5e6"/>
    <path d="M88.85,113.4A17.74,17.74,0,0,0,91.19,115a16.31,16.31,0,0,0,2.5,1.18c-2.64,8.18-4.83,15.81-6.48,21.53-1.42,5-2.9,10.1-3.42,11-2.31,4-6,6.38-9.82,6.38a10.1,10.1,0,0,1-5.1-1.43c-5.33-3.08-6.64-9.41-3.18-15.4.53-.91,4-4.58,7.79-8.47,4.12-4.29,9.61-10,15.37-16.41m-.13-3.8C76.25,123.65,64.82,134.53,63.41,137c-4,6.9-2.75,15,4.14,19A12.73,12.73,0,0,0,74,157.74c4.81,0,9.33-2.9,12.1-7.69,1.4-2.42,5.09-17.85,11-35.62a14.47,14.47,0,0,1-4.54-1.69,14.66,14.66,0,0,1-3.78-3.14Z" fill="#66b5e6"/>
    <path d="M49.62,89.55c1.05,0,6,1.22,11.23,2.51,5.77,1.42,13.47,3.32,21.9,5.11a17.91,17.91,0,0,0-.23,2.83,17,17,0,0,0,.22,2.76c-8.4,1.8-16.1,3.71-21.87,5.15-5,1.25-10.2,2.54-11.25,2.54-6.92,0-11.74-4.3-11.74-10.45S42.7,89.55,49.62,89.55m0-2.63c-8,0-14.37,5.12-14.37,13.08s6.41,13.08,14.37,13.08c2.8,0,18-4.51,36.33-8.31a14.6,14.6,0,0,1,0-9.62c-18.4-3.77-33.54-8.23-36.36-8.23Z" fill="#66b5e6"/>
    <path d="M74,44.89c3.84,0,7.51,2.38,9.82,6.38.53.91,1.94,5.8,3.44,11,1.66,5.71,3.86,13.32,6.53,21.52A17.22,17.22,0,0,0,91.19,85a17.74,17.74,0,0,0-2.28,1.57c-5.76-6.37-11.27-12.08-15.4-16.36-3.59-3.72-7.29-7.57-7.82-8.47-3.46-6-2.15-12.32,3.18-15.4A10.1,10.1,0,0,1,74,44.89m0-2.63A12.73,12.73,0,0,0,67.55,44c-6.89,4-8.12,12.09-4.14,19,1.4,2.42,12.91,13.33,25.36,27.31a14.58,14.58,0,0,1,3.73-3.08,14.77,14.77,0,0,1,4.62-1.7C91.18,67.73,87.48,52.39,86.07,50c-2.77-4.79-7.29-7.69-12.1-7.69Z" fill="#66b5e6"/>
    <path d="M125.75,44.89a10.1,10.1,0,0,1,5.1,1.43c5.33,3.08,6.64,9.41,3.18,15.4-.53.91-4.05,4.58-7.79,8.47-4.12,4.29-9.61,10-15.37,16.41A17.74,17.74,0,0,0,108.53,85a17.36,17.36,0,0,0-2.5-1.19c2.64-8.17,4.83-15.8,6.48-21.52,1.42-5,2.9-10.1,3.42-11,2.31-4,6-6.38,9.82-6.38m0-2.63c-4.81,0-9.33,2.9-12.1,7.69-1.4,2.42-5.09,17.85-11,35.62a14.47,14.47,0,0,1,4.54,1.69A14.66,14.66,0,0,1,111,90.4C123.47,76.35,134.9,65.47,136.31,63c4-6.9,2.75-15-4.14-19a12.73,12.73,0,0,0-6.42-1.78Z" fill="#66b5e6"/>
    <path d="M114.57,100c0,.42,0,.83-.06,1.24,12.89,2.57,29.57,6.65,31.14,6.65a7.89,7.89,0,0,0,0-15.78c-1.57,0-18.25,4.08-31.14,6.65C114.55,99.17,114.57,99.58,114.57,100Z" fill="#66b5e6"/>
    <path d="M107.22,112.74c-.37.21-.74.39-1.11.57,4.22,12.45,9,28.93,9.81,30.29a7.89,7.89,0,0,0,13.67-7.89c-.79-1.36-12.66-13.76-21.33-23.64C107.92,112.3,107.58,112.53,107.22,112.74Z" fill="#66b5e6"/>
    <path d="M92.5,112.74c-.36-.21-.7-.44-1-.67-8.67,9.88-20.54,22.28-21.33,23.64A7.89,7.89,0,0,0,83.8,143.6c.78-1.36,5.59-17.84,9.81-30.29C93.24,113.13,92.87,113,92.5,112.74Z" fill="#66b5e6"/>
    <path d="M85.15,100c0-.42,0-.83.06-1.24-12.89-2.57-29.57-6.65-31.14-6.65a7.89,7.89,0,1,0,0,15.78c1.57,0,18.25-4.08,31.14-6.65C85.17,100.83,85.15,100.42,85.15,100Z" fill="#66b5e6"/>
    <path d="M92.5,87.26c.37-.21.74-.39,1.11-.57-4.22-12.45-9-28.93-9.81-30.29a7.89,7.89,0,1,0-13.67,7.89c.79,1.36,12.66,13.76,21.33,23.64C91.8,87.7,92.14,87.47,92.5,87.26Z" fill="#66b5e6"/>
    <path d="M107.22,87.26c.36.21.7.44,1,.67,8.67-9.88,20.54-22.28,21.33-23.64a7.89,7.89,0,0,0-13.67-7.89c-.78,1.36-5.59,17.84-9.81,30.29C106.48,86.87,106.85,87.05,107.22,87.26Z" fill="#66b5e6"/>
    <path d="M101.43,114.62c2.64,12.08,5.42,24,9,35.84,2.66,8.57,5.53,17.29,10.32,24.84.49.6,1.12,1.67,1.65,2.24,3.36,4.42,8.64,5.75,14,5.88,11.27.34,20.1-9.35,20.43-20.26-.59-11.52-18.9-29.24-27.11-37.54-5.78-5.82-11.86-11.36-18-17,15.64,10.21,30.52,21.88,42.63,36.27a56.14,56.14,0,0,1,6.26,9.53,20.94,20.94,0,0,1,2.41,8.64c0,14.68-11.85,27.3-26.74,26.8-6.82-.09-14.69-2.82-18.66-8.66-.27-.33-.76-1-1-1.39-10.3-16.15-14.21-46.11-15.22-65.24Z" fill="#0b318f"/>
    <path d="M113.31,106c11.78,3.74,23.53,7.32,35.53,10.13,8.75,2,17.74,3.85,26.67,3.47.77-.11,2-.13,2.77-.3,5.5-.7,9.29-4.62,12.08-9.16,5.93-9.59,1.95-22.09-7.33-27.83C172.75,77,148.25,84,137,87,129,89.07,121.19,91.57,113.31,94A219.84,219.84,0,0,1,136,83.91c10.65-4,21.81-7.69,33.25-9.06,5.76-.51,11.49-.79,16.89,2,12.71,7.34,17.72,23.91,9.84,36.55-3.48,5.87-9.78,11.32-16.82,11.83-.43.07-1.27.15-1.7.17-19.13.84-47-10.75-64.11-19.43Z" fill="#0b318f"/>
    <path d="M88,108.67c-9.14,8.33-18.11,16.72-26.54,25.71-6.1,6.58-12.21,13.43-16.35,21.35-.28.73-.89,1.81-1.12,2.55-2.15,5.12-.65,10.36,1.9,15.05,5.34,9.93,18.15,12.73,27.76,7.56,9.67-6.24,15.89-31,19-42.24,2.15-7.93,3.91-16,5.7-24-1,18.65-3.69,37.38-10.09,55.06a56.13,56.13,0,0,1-5.13,10.18,20.82,20.82,0,0,1-6.28,6.41c-12.7,7.34-29.56,3.39-36.57-9.76-3.74-6.86-5-14.95-1.12-22,8.83-17,32.82-35.36,48.88-45.8Z" fill="#0b318f"/>
    <path d="M86.41,94C74.63,90.3,62.88,86.72,50.88,83.91c-8.75-2-17.74-3.85-26.67-3.47-.77.11-2,.13-2.77.3-5.5.7-9.29,4.62-12.08,9.16C3.43,99.49,7.41,112,16.69,117.73,27,123,51.47,116,62.76,113c7.93-2.09,15.77-4.59,23.65-7.06a220.64,220.64,0,0,1-22.64,10.13c-10.66,4-21.82,7.69-33.26,9.06-5.76.51-11.49.79-16.89-2C.91,115.82-4.1,99.25,3.78,86.61c3.48-5.87,9.78-11.32,16.83-11.83.42-.07,1.27-.15,1.69-.17,19.13-.84,47,10.75,64.11,19.43Z" fill="#0b318f"/>
    <path d="M98.29,85.38c-2.64-12.08-5.42-24-9-35.84C86.64,41,83.77,32.25,79,24.7c-.49-.6-1.12-1.67-1.65-2.24-3.36-4.42-8.64-5.75-14-5.88-11.26-.34-20.1,9.35-20.43,20.26C43.51,48.36,61.82,66.08,70,74.38c5.78,5.82,11.86,11.36,18,17C72.34,81.12,57.46,69.45,45.35,55.06a56.14,56.14,0,0,1-6.26-9.53,20.78,20.78,0,0,1-2.4-8.64c0-14.68,11.84-27.3,26.73-26.8,6.82.09,14.69,2.82,18.66,8.66.27.33.76,1,1,1.39,10.3,16.14,14.21,46.11,15.22,65.24Z" fill="#0b318f"/>
    <path d="M111.74,91.33c9.14-8.33,18.11-16.72,26.54-25.71,6.1-6.58,12.21-13.43,16.35-21.35.28-.73.89-1.81,1.12-2.55,2.15-5.12.65-10.36-1.89-15-5.35-9.93-18.16-12.73-27.77-7.56-9.67,6.24-15.89,31-19,42.24-2.15,7.93-3.91,16-5.7,24,1-18.65,3.69-37.38,10.09-55.06a56.13,56.13,0,0,1,5.13-10.18,20.82,20.82,0,0,1,6.28-6.41c12.7-7.34,29.56-3.39,36.57,9.76,3.74,6.86,5,15,1.12,22-8.83,17-32.82,35.36-48.88,45.8Z" fill="#0b318f"/>
  </g>
</svg>
