<svg xmlns="http://www.w3.org/2000/svg" width="200" height="200" viewBox="0 0 200 200">
  <g>
    <circle cx="100" cy="100" r="11.85" fill="#fcc800"/>
    <path d="M122.55,71.41C136.94,57.33,158.23,50.28,178,54.23A59.45,59.45,0,0,1,170.22,70c-12.32,17.84-34,28.31-55.72,27.27,30.57,7.16,63.4-14.4,70.8-44.65a3.11,3.11,0,0,0-2.34-4A62.14,62.14,0,0,0,124,65c-6.58,6.68-11.92,15.12-14.36,24.07A65.53,65.53,0,0,1,122.55,71.41Z" fill="#fcc800"/>
    <path d="M105.13,113.6a65.53,65.53,0,0,1,8.67,20.07c4.81,19.56,0,41.47-13.42,56.52a59.08,59.08,0,0,1-9.61-14.75c-9.1-19.68-7.11-43.65,4.84-61.84-21.7,22.68-19.83,61.91,2.45,83.66a3.13,3.13,0,0,0,4.62,0,62.13,62.13,0,0,0,15.87-59.06C116.15,129.14,111.6,120.25,105.13,113.6Z" fill="#fcc800"/>
    <path d="M96.05,86.45a65.63,65.63,0,0,1-8.9-20C82.12,47,86.62,25,99.91,9.81a59.5,59.5,0,0,1,9.79,14.64C119,44,117.31,68,105.56,86.34,127,63.42,124.69,24.21,102.15,2.72a3.11,3.11,0,0,0-4.61,0A62.09,62.09,0,0,0,82.35,62C84.85,71,89.5,79.87,96.05,86.45Z" fill="#fcc800"/>
    <path d="M77.89,128C63.35,141.9,42,148.73,22.22,144.57a59.49,59.49,0,0,1,8-15.7c12.51-17.71,34.26-27.95,56-26.68-30.49-7.48-63.55,13.73-71.27,43.9a3.11,3.11,0,0,0,2.31,4,62.13,62.13,0,0,0,59.09-15.73A56.35,56.35,0,0,0,91,110.44,65.73,65.73,0,0,1,77.89,128Z" fill="#fcc800"/>
    <path d="M58.3,96.81a56.27,56.27,0,0,0,28,.25,65.69,65.69,0,0,1-21.76-2.19C45.15,89.55,28.31,74.74,21.71,55.65a59.27,59.27,0,0,1,17.58-1.22C60.9,56.06,80.88,69.45,91,88.75c-9.26-30-44.44-47.45-74.29-38.56a3.11,3.11,0,0,0-2.24,4A62.09,62.09,0,0,0,58.3,96.81Z" fill="#fcc800"/>
    <path d="M185.59,146.25a62.12,62.12,0,0,0-43.13-43.35c-9.05-2.47-19-3-28-.73a65.45,65.45,0,0,1,21.72,2.57c19.33,5.65,35.9,20.75,42.17,40a59.31,59.31,0,0,1-17.59.92c-21.59-2-41.33-15.74-51.07-35.21,8.73,30.15,43.61,48.21,73.6,39.84A3.12,3.12,0,0,0,185.59,146.25Z" fill="#fcc800"/>
    <path d="M100.23,114.43H100c-.75,9-3.42,40.83-3.42,42.55a3.63,3.63,0,1,0,7.25,0c0-1.72-2.67-33.54-3.43-42.55Z" fill="#0b318f"/>
    <path d="M87.73,107.2s0-.11-.09-.17c-8.19,3.84-37.09,17.42-38.57,18.27a3.63,3.63,0,1,0,3.62,6.29c1.49-.86,27.72-19.06,35.15-24.22A1.63,1.63,0,0,0,87.73,107.2Z" fill="#0b318f"/>
    <path d="M87.63,93a1.63,1.63,0,0,0,.11-.17c-7.5-5-34-22.88-35.49-23.72a3.63,3.63,0,0,0-3.54,6.34c1.51.84,30.59,14,38.84,17.73Z" fill="#0b318f"/>
    <path d="M100.23,85.57h.2c.76-9,3.43-40.83,3.43-42.55a3.63,3.63,0,1,0-7.25,0c0,1.72,2.67,33.54,3.42,42.55Z" fill="#0b318f"/>
    <path d="M112.7,92.73a1.51,1.51,0,0,0,.09.18c8.17-3.89,37-17.61,38.48-18.48a3.63,3.63,0,1,0-3.65-6.27c-1.49.87-27.63,19.21-35,24.4A1.63,1.63,0,0,0,112.7,92.73Z" fill="#0b318f"/>
    <path d="M112.72,107.24l-.11.16c7.41,5.18,33.6,23.45,35.09,24.31a3.63,3.63,0,0,0,3.64-6.28c-1.49-.86-30.35-14.51-38.53-18.37A1.51,1.51,0,0,0,112.72,107.24Z" fill="#0b318f"/>
    <path d="M23.08,120.05a1.29,1.29,0,0,1-1-.5,79,79,0,0,0-6.17-7A77.57,77.57,0,0,0,1.18,101a1.3,1.3,0,0,1-.63-1.11,1.31,1.31,0,0,1,.63-1.12,77.17,77.17,0,0,0,14.7-11.58,77.52,77.52,0,0,0,6.17-7,1.3,1.3,0,1,1,2.06,1.6A81.27,81.27,0,0,1,17.73,89,79.58,79.58,0,0,1,4.32,99.84a79.92,79.92,0,0,1,13.41,10.85A80,80,0,0,1,24.11,118a1.3,1.3,0,0,1-.23,1.83A1.27,1.27,0,0,1,23.08,120.05Z" fill="#00a29a"/>
    <path d="M44.94,44.56a1.22,1.22,0,0,1-.52-.11,1.3,1.3,0,0,1-.68-1.71,77.37,77.37,0,0,0,3.15-8.8,77.54,77.54,0,0,0,3-18.47,1.3,1.3,0,0,1,2-1.08,77,77,0,0,0,17.25,7.25,77.83,77.83,0,0,0,9.13,2,1.31,1.31,0,1,1-.4,2.58,78.67,78.67,0,0,1-9.44-2.06,79.72,79.72,0,0,1-16-6.47,79.64,79.64,0,0,1-3,17,78.76,78.76,0,0,1-3.25,9.1A1.32,1.32,0,0,1,44.94,44.56Z" fill="#00a29a"/>
    <path d="M155.43,44.56a1.29,1.29,0,0,1-1.21-.83,80.65,80.65,0,0,1-3-9.18,79.43,79.43,0,0,1-2.51-17.07,79.93,79.93,0,0,1-16.18,6A80.56,80.56,0,0,1,123,25.3a1.31,1.31,0,0,1-.33-2.6A77.32,77.32,0,0,0,131.89,21a77.23,77.23,0,0,0,17.45-6.76,1.31,1.31,0,0,1,1.92,1.13,77.13,77.13,0,0,0,5.39,27.43,1.31,1.31,0,0,1-1.22,1.79Z" fill="#00a29a"/>
    <path d="M176.92,120.05a1.27,1.27,0,0,1-.8-.27,1.3,1.3,0,0,1-.23-1.83,79.48,79.48,0,0,1,19.79-18.11,80,80,0,0,1-19.79-18.11,1.3,1.3,0,1,1,2.06-1.6,79.09,79.09,0,0,0,6.17,7,76.86,76.86,0,0,0,14.7,11.58,1.31,1.31,0,0,1,.63,1.12,1.3,1.3,0,0,1-.63,1.11,77.57,77.57,0,0,0-14.7,11.58,79.22,79.22,0,0,0-6.17,7A1.29,1.29,0,0,1,176.92,120.05Z" fill="#00a29a"/>
    <path d="M149.72,185.93a1.28,1.28,0,0,1-.63-.16,76.72,76.72,0,0,0-26.55-8.72,1.31,1.31,0,0,1,.35-2.59,78.12,78.12,0,0,1,9.47,1.88,79.42,79.42,0,0,1,16.12,6.16,80.21,80.21,0,0,1,5.74-26.21,1.31,1.31,0,0,1,2.42,1,78.74,78.74,0,0,0-3,8.86A77.31,77.31,0,0,0,151,184.65a1.3,1.3,0,0,1-.65,1.11A1.26,1.26,0,0,1,149.72,185.93Z" fill="#00a29a"/>
    <path d="M50.59,186a1.28,1.28,0,0,1-.65-.18,1.3,1.3,0,0,1-.65-1.11,76.85,76.85,0,0,0-2.61-18.53,76.67,76.67,0,0,0-3-8.86,1.31,1.31,0,0,1,2.42-1,80.16,80.16,0,0,1,3.06,9.17,79.21,79.21,0,0,1,2.62,17A79.69,79.69,0,0,1,68,176.39a78.6,78.6,0,0,1,9.48-1.86,1.31,1.31,0,0,1,.34,2.59,75.79,75.79,0,0,0-9.17,1.8,76.71,76.71,0,0,0-17.4,6.87A1.4,1.4,0,0,1,50.59,186Z" fill="#00a29a"/>
  </g>
</svg>
