<svg xmlns="http://www.w3.org/2000/svg" width="200" height="200" viewBox="0 0 200 200">
  <g>
    <path d="M180.25,100.25a1.57,1.57,0,0,0,0-.5.81.81,0,0,0-.07-.22,1.34,1.34,0,0,0-.12-.24s0-.06,0-.08-.09-.07-.13-.12a1.42,1.42,0,0,0-.12-.13,414.12,414.12,0,0,1-42.43-37.08,415.29,415.29,0,0,1-36.41-41.76.81.81,0,0,0-.14-.12s-.06-.1-.11-.13l-.08,0a1.79,1.79,0,0,0-.24-.12,1.11,1.11,0,0,0-.22-.07,1.14,1.14,0,0,0-.26,0,1,1,0,0,0-.24,0,1,1,0,0,0-.23.07,1.67,1.67,0,0,0-.23.12l-.08,0S99,20,99,20a1.42,1.42,0,0,0-.13.12A415.19,415.19,0,0,1,61.77,62.55,415.29,415.29,0,0,1,20,99a1.42,1.42,0,0,0-.12.13s-.1.07-.13.12a.2.2,0,0,0,0,.08,1.34,1.34,0,0,0-.12.24.81.81,0,0,0-.07.22,1.57,1.57,0,0,0,0,.5.81.81,0,0,0,.07.22,1.34,1.34,0,0,0,.12.24.2.2,0,0,0,0,.08A1.36,1.36,0,0,0,20,101h0a415.29,415.29,0,0,1,41.76,36.41,415.19,415.19,0,0,1,37.08,42.43.91.91,0,0,0,.24.24h0l0,0a1.18,1.18,0,0,0,.29.16l.1,0a1,1,0,0,0,.35.06h0a1,1,0,0,0,.36-.06l.1,0a1.18,1.18,0,0,0,.29-.16l0,0h0a.91.91,0,0,0,.24-.24A412.63,412.63,0,0,1,179.77,101h0a1.36,1.36,0,0,0,.24-.24s0-.05,0-.08a1.34,1.34,0,0,0,.12-.24A.81.81,0,0,0,180.25,100.25Zm-44.76,36A417.12,417.12,0,0,0,99.89,177a418,418,0,0,0-36.28-41.35A415.89,415.89,0,0,0,22.93,100,415.89,415.89,0,0,0,63.61,64.39,418,418,0,0,0,99.89,23a417.12,417.12,0,0,0,35.6,40.68A418,418,0,0,0,176.85,100,418,418,0,0,0,135.49,136.28Z" fill="#fcc800"/>
    <circle cx="99.89" cy="100" r="12" fill="#fcc800"/>
    <path d="M158.13,100a1.3,1.3,0,0,0-.38-.92A29.32,29.32,0,0,0,139,90.59a29.36,29.36,0,0,0,4.51-7.11,1.33,1.33,0,0,0-.66-1.73,29.08,29.08,0,0,0-25.54.82A29.08,29.08,0,0,0,118.14,57a1.32,1.32,0,0,0-1.73-.66,29.36,29.36,0,0,0-7.11,4.51,29.32,29.32,0,0,0-8.49-18.74,1.34,1.34,0,0,0-1.84,0,29.32,29.32,0,0,0-8.49,18.74,29.36,29.36,0,0,0-7.11-4.51,1.29,1.29,0,0,0-1,0,1.32,1.32,0,0,0-.73.68,29.08,29.08,0,0,0,.82,25.54,29.08,29.08,0,0,0-25.54-.82,1.32,1.32,0,0,0-.68.73,1.24,1.24,0,0,0,0,1,29,29,0,0,0,4.5,7.11A29.32,29.32,0,0,0,42,99.08a1.3,1.3,0,0,0,0,1.84,29.32,29.32,0,0,0,18.74,8.49,29,29,0,0,0-4.5,7.11,1.24,1.24,0,0,0,0,1,1.35,1.35,0,0,0,.68.73,29.44,29.44,0,0,0,12,2.57,28.89,28.89,0,0,0,13.56-3.38A29.09,29.09,0,0,0,81.64,143a1.35,1.35,0,0,0,.73.68,1.29,1.29,0,0,0,1,0,29,29,0,0,0,7.11-4.5A29.32,29.32,0,0,0,99,157.86a1.3,1.3,0,0,0,1.84,0,29.32,29.32,0,0,0,8.49-18.74,29,29,0,0,0,7.11,4.5,1.29,1.29,0,0,0,1,0,1.32,1.32,0,0,0,.73-.68,29.09,29.09,0,0,0-.81-25.53,28.89,28.89,0,0,0,13.56,3.38,29.41,29.41,0,0,0,12-2.57,1.32,1.32,0,0,0,.66-1.73,29.36,29.36,0,0,0-4.51-7.11,29.32,29.32,0,0,0,18.74-8.49A1.3,1.3,0,0,0,158.13,100Zm-22.08,6.84a1.31,1.31,0,0,0-1.25.8,1.29,1.29,0,0,0,.31,1.45,26.5,26.5,0,0,1,5.45,7.29,26.48,26.48,0,0,1-28.08-5.63.86.86,0,0,0-.2-.13,1.28,1.28,0,0,0-.21-.14l-.26-.06a1.85,1.85,0,0,0-.23,0,1.09,1.09,0,0,0-.26.05,1.55,1.55,0,0,0-.23,0,1.42,1.42,0,0,0-.23.14,2.14,2.14,0,0,0-.19.13,0,0,0,0,0,0,0s0,0,0,0a.86.86,0,0,0-.13.2,1.28,1.28,0,0,0-.14.21,1.11,1.11,0,0,0-.05.25.77.77,0,0,0,0,.49.7.7,0,0,0,.19.46,1.13,1.13,0,0,0,.13.2,26.48,26.48,0,0,1,5.63,28.08,26.5,26.5,0,0,1-7.28-5.45,1.31,1.31,0,0,0-2.26.94A26.67,26.67,0,0,1,99.89,155a26.67,26.67,0,0,1-6.84-18.88,1.31,1.31,0,0,0-2.26-.94,26.5,26.5,0,0,1-7.28,5.45,26.47,26.47,0,0,1,5.64-28.08,1.32,1.32,0,0,0,.12-.2,1,1,0,0,0,.14-.22,2,2,0,0,0,.06-.26c0-.07,0-.15,0-.22a1.26,1.26,0,0,0-.05-.28,1.6,1.6,0,0,0,0-.21,1.32,1.32,0,0,0-.16-.25,1,1,0,0,0-.11-.17,0,0,0,0,0,0,0l0,0a1,1,0,0,0-.25-.15.91.91,0,0,0-.16-.11,1.65,1.65,0,0,0-.32-.07c-.06,0-.11,0-.17,0a1.2,1.2,0,0,0-.32.06l-.17,0a1,1,0,0,0-.25.16,1,1,0,0,0-.17.11,26.48,26.48,0,0,1-28.08,5.63,26.3,26.3,0,0,1,5.45-7.28,1.31,1.31,0,0,0-.94-2.26A26.67,26.67,0,0,1,44.85,100a26.65,26.65,0,0,1,18.88-6.84,1.29,1.29,0,0,0,1.25-.8,1.31,1.31,0,0,0-.31-1.46,26.3,26.3,0,0,1-5.45-7.28A26.48,26.48,0,0,1,87.3,89.25a.86.86,0,0,0,.2.13,1,1,0,0,0,.22.14,2.27,2.27,0,0,0,.25.06,1.85,1.85,0,0,0,.23,0,1.28,1.28,0,0,0,.27-.05,1.74,1.74,0,0,0,.22,0,.7.7,0,0,0,.23-.15.62.62,0,0,0,.19-.12s0,0,0,0,0,0,0,0a2.43,2.43,0,0,0,.14-.2,2.53,2.53,0,0,0,.13-.22,1,1,0,0,0,0-.24,1.11,1.11,0,0,0,.05-.25,1.14,1.14,0,0,0-.05-.24,1,1,0,0,0,0-.24,2.53,2.53,0,0,0-.13-.22,2.43,2.43,0,0,0-.14-.2,26.48,26.48,0,0,1-5.63-28.08,26.3,26.3,0,0,1,7.28,5.45,1.31,1.31,0,0,0,2.26-.94A26.67,26.67,0,0,1,99.89,45a26.67,26.67,0,0,1,6.84,18.88,1.31,1.31,0,0,0,2.26.94,26.3,26.3,0,0,1,7.28-5.45,26.48,26.48,0,0,1-5.63,28.08,1.13,1.13,0,0,0-.13.2,2,2,0,0,0-.24.7,1,1,0,0,0,0,.25.7.7,0,0,0,.19.46.86.86,0,0,0,.13.2s0,0,0,0,0,0,0,0a.64.64,0,0,0,.22.14.8.8,0,0,0,.19.13,1.19,1.19,0,0,0,.26,0,1,1,0,0,0,.22.05h0s.1,0,.16,0a1.65,1.65,0,0,0,.32-.07,1,1,0,0,0,.19-.12,1.14,1.14,0,0,0,.23-.15,26.48,26.48,0,0,1,28.08-5.63,26.3,26.3,0,0,1-5.45,7.28,1.31,1.31,0,0,0-.31,1.46,1.29,1.29,0,0,0,1.25.8A26.71,26.71,0,0,1,154.93,100,26.71,26.71,0,0,1,136.05,106.84Z" fill="#eb6100"/>
    <path d="M99.89,84.8a15.33,15.33,0,0,1,4.71.75c1-6,1.68-10.72,1.68-11.39a6.39,6.39,0,0,0-12.78,0c0,.67.72,5.4,1.68,11.39A15.33,15.33,0,0,1,99.89,84.8Z" fill="#0b318f"/>
    <path d="M115.09,100a15.33,15.33,0,0,1-.75,4.71c6,1,10.72,1.68,11.38,1.68a6.39,6.39,0,1,0,0-12.78c-.66,0-5.39.72-11.38,1.68A15.33,15.33,0,0,1,115.09,100Z" fill="#0b318f"/>
    <path d="M99.89,115.2a15.33,15.33,0,0,1-4.71-.75c-1,6-1.68,10.72-1.68,11.39a6.39,6.39,0,1,0,12.78,0c0-.66-.72-5.39-1.68-11.38A15.33,15.33,0,0,1,99.89,115.2Z" fill="#0b318f"/>
    <path d="M84.69,100a15.22,15.22,0,0,1,.75-4.7c-6-1-10.72-1.69-11.39-1.69a6.4,6.4,0,1,0,0,12.79c.66,0,5.39-.73,11.38-1.69A15.28,15.28,0,0,1,84.69,100Z" fill="#0b318f"/>
    <path d="M66.86,153.67A218.08,218.08,0,0,0,3.39,100,184.77,184.77,0,0,0,19.87,89.83a221.57,221.57,0,0,0,47-43.5A103.46,103.46,0,0,0,76.15,33C79,28,81.42,23.09,82,17.18c1-8-6.25-17.24-14.77-15.9-6,.56-11.55,5.56-11,11.84.22,6.22,7.09,9.54,12.46,7.2-3.28.86-7.15-.07-9.2-2.79a7.87,7.87,0,0,1,0-8.86c3.46-5,12-5.67,15.4-.3,4.38,5.54,1.83,11.7-1,17.36-4.86,8.91-11.83,17-18.75,24.52C38.44,68.12,19.76,84,.43,99.05a1.27,1.27,0,0,0,0,1.9c8.31,6.55,16.49,13.07,24.48,20,13,11.43,56,49.31,52.16,66.65-2,6.45-7.6,9.8-14,6.7-6.41-2.81-6.69-12.54.54-14.5a9.73,9.73,0,0,1,5.14-.07,9.32,9.32,0,0,0-10.22,1.92c-2.44,2.48-2.76,6.42-1.65,9.62,3.23,8.46,15.89,10.31,21.37,3,6-6.89,3.94-15,.49-22.32A96.56,96.56,0,0,0,66.86,153.67Z" fill="#0b318f"/>
    <path d="M199.35,99.05C191,92.5,182.86,86,174.87,79.1c-13-11.43-56-49.31-52.16-66.65,2-6.45,7.6-9.8,14-6.7,6.41,2.81,6.69,12.54-.54,14.5a9.73,9.73,0,0,1-5.14.07,9.32,9.32,0,0,0,10.22-1.92c2.44-2.48,2.76-6.42,1.65-9.62C139.65.32,127-1.53,121.52,5.79c-6,6.89-3.94,15-.49,22.32a96.56,96.56,0,0,0,11.89,18.22A218.08,218.08,0,0,0,196.39,100a184.77,184.77,0,0,0-16.48,10.18,221.57,221.57,0,0,0-47,43.5A103.46,103.46,0,0,0,123.63,167c-2.82,4.93-5.27,9.88-5.89,15.79-1,8,6.26,17.24,14.78,15.9,5.95-.56,11.55-5.56,10.95-11.84-.22-6.22-7.08-9.54-12.45-7.2,3.28-.86,7.15.07,9.2,2.79a7.87,7.87,0,0,1,0,8.86c-3.46,5-12,5.67-15.4.3-4.39-5.54-1.83-11.7,1-17.36,4.86-8.91,11.83-17,18.75-24.52C161.34,131.88,180,116,199.35,101a1.16,1.16,0,0,0,.42-1.06A1.13,1.13,0,0,0,199.35,99.05Z" fill="#0b318f"/>
  </g>
</svg>
