<svg xmlns="http://www.w3.org/2000/svg" width="200" height="200" viewBox="0 0 200 200">
  <g>
    <path d="M58.71,71.32c-8.7,7-21.1,4-25.23-6.6-2.8-7.4.26-16.31,6.69-20.81A24.68,24.68,0,0,1,53.28,39.8C67.65,39,78.54,52.2,80.54,65.45c2.06,11.16-1.63,22.6-6.78,32.31A59.54,59.54,0,0,0,76.64,74c-.21-6.89-2-14-6.54-19.24-5.14-6-12.5-9.61-20.31-8.43-7.32.78-12.86,6.29-13.12,13.7a13.4,13.4,0,0,0,7,11.84c4.54,2.58,10.49,1.86,15-.59Z" fill="#0b318f"/>
    <path d="M141.29,71.32c4.52,2.45,10.47,3.17,15,.59a13.4,13.4,0,0,0,7-11.84c-.27-7.41-5.79-12.92-13.12-13.7C142.4,45.19,135,48.76,129.9,54.8c-4.53,5.29-6.33,12.35-6.54,19.24a59.54,59.54,0,0,0,2.88,23.72c-5.15-9.71-8.84-21.15-6.78-32.31,2-13.25,12.89-26.5,27.26-25.65a24.68,24.68,0,0,1,13.11,4.11c6.43,4.5,9.49,13.41,6.69,20.81-4.13,10.56-16.53,13.59-25.23,6.6Z" fill="#0b318f"/>
    <path d="M2.91,58.37h0A29.86,29.86,0,0,1,32.77,28.51h0A29.86,29.86,0,0,1,2.91,58.37Z" fill="#0b318f"/>
    <path d="M100,55.82h0a29.86,29.86,0,0,1,0-42.23h0a29.86,29.86,0,0,1,0,42.23Z" fill="#0b318f"/>
    <path d="M75.21,31.09h0A29.86,29.86,0,0,1,45.35,1.23h0A29.86,29.86,0,0,1,75.21,31.09Z" fill="#0b318f"/>
    <path d="M197.09,58.37h0a29.86,29.86,0,0,0-29.86-29.86h0a29.86,29.86,0,0,0,29.86,29.86Z" fill="#0b318f"/>
    <path d="M124.79,31.09h0A29.86,29.86,0,0,0,154.65,1.23h0a29.86,29.86,0,0,0-29.86,29.86Z" fill="#0b318f"/>
    <path d="M100,180.06a37.7,37.7,0,0,1,4.67-17.54,38.4,38.4,0,0,1-4.69.29,38,38,0,0,1-4.65-.29,39.62,39.62,0,0,1,2.9,7A40,40,0,0,1,100,180.06Z" fill="#eb6100"/>
    <path d="M92.3,193.89a10,10,0,0,1-2.14-7.75,2,2,0,0,0-.14-1.22,2.08,2.08,0,0,0-3-.83c-2.15.93-5,1.88-7.17,1a1.71,1.71,0,0,1-.37-.72c-.9-4.52,1.21-9.69,2.75-14.09.23-.58.86-2.18,1.11-2.73.14-.3.29-.62.41-.95l0,.09c.27-.57.58-1.31.82-2,.39-.86.85-1.7,1.32-2.61A3.27,3.27,0,1,0,80,159.24a45.64,45.64,0,0,0-2,5l-.26,1.24a2.66,2.66,0,0,1,.2-1.08l0,.12c-.41,1-1,2.74-1.33,3.78-1.6,5.58-5,15.94.09,20.59,2.95,2,6.6,1.48,9.78.27a14.11,14.11,0,0,0,4.31,6.25A25.08,25.08,0,0,0,99.33,200,24.08,24.08,0,0,1,92.3,193.89Z" fill="#eb6100"/>
    <path d="M123.42,172.38c-.51-2-1.2-4.16-1.87-6.12-.16-.46-.48-1.33-.65-1.77l0-.12a2.49,2.49,0,0,1,.19,1.08,27.6,27.6,0,0,0-2.27-6.21,3.27,3.27,0,1,0-5.87,2.87c.48.91.94,1.76,1.33,2.62.24.64.56,1.38.82,2l0-.11.06.19c.45,1,1.07,2.53,1.47,3.51,1.53,4.4,3.64,9.57,2.74,14.09a1.71,1.71,0,0,1-.37.72c-2.14.89-5-.06-7.17-1a2,2,0,0,0-3.17,2c1,6.09-4.31,10.89-9.17,13.86,4.61-1.51,9.45-4.15,12-8.66a13,13,0,0,0,1-2.19c4.3,1.57,9.93,1.87,11.69-3C125.68,181.47,124.43,176.78,123.42,172.38Z" fill="#eb6100"/>
    <path d="M47,150a37.87,37.87,0,0,1,17.73-3.89,37.71,37.71,0,0,1-4.29-8.3A40.06,40.06,0,0,1,47,150Z" fill="#eb6100"/>
    <path d="M37.31,144.6a2,2,0,0,0,1-.69,2.08,2.08,0,0,0-.65-3.07c-1.8-1.48-4.09-3.69-4.15-6a6.28,6.28,0,0,1,3-2.17,43.77,43.77,0,0,1,11.18-2.45c.63-.05,2.33-.23,2.94-.26a9.29,9.29,0,0,0,1-.08l-.09,0c.63,0,1.43-.08,2.11-.17.94,0,1.9,0,2.93,0a3.27,3.27,0,1,0-.14-6.53,27.68,27.68,0,0,0-6.55.84,2.58,2.58,0,0,1,1.05-.33c-1.15.11-3,.41-4.1.57-5.69,1.14-16.48,2.82-18.26,9.53-.46,3.55,1.72,6.53,4.25,8.81a14.11,14.11,0,0,0-3.58,6.69,25.25,25.25,0,0,0-.15,9.79,24,24,0,0,1,2.21-9.05A10,10,0,0,1,37.31,144.6Z" fill="#eb6100"/>
    <path d="M69.08,153.8c-.59.84-1.12,1.63-1.7,2.37-.47.51-1,1.13-1.36,1.63l.07-.06c-.24.26-.45.53-.66.8-.38.48-1.51,1.76-1.92,2.24-3.2,3.38-6.82,7.63-11.25,8.9a2.5,2.5,0,0,1-.75,0l-.06,0-.13-.08c-1.72-1.67-2.19-4.71-2.3-7.14A2,2,0,0,0,45.76,161c-4.95,3.69-11.66,1.17-16.52-1.79,3.46,3.41,8,6.49,13.19,6.68a12.83,12.83,0,0,0,2.38-.17c.58,4.54,2.9,9.68,8,9,4.9-.7,8.5-4,12-6.88,1.55-1.37,3.14-3,4.58-4.47.33-.36,1-1,1.27-1.39l.09-.09a2.58,2.58,0,0,1-.87.66,27.36,27.36,0,0,0,4.47-4.86A3.27,3.27,0,1,0,69.08,153.8Z" fill="#eb6100"/>
    <path d="M153,150a37.87,37.87,0,0,0-17.73-3.89,37.71,37.71,0,0,0,4.29-8.3A40.06,40.06,0,0,0,153,150Z" fill="#eb6100"/>
    <path d="M167.1,142.64c3.36-3.1,6.21-8,2.7-11.77-3.42-3.59-8.16-4.63-12.53-5.76-2-.47-4.25-.84-6.3-1.14l-1.87-.23-.13,0a2.58,2.58,0,0,1,1.05.33,27.68,27.68,0,0,0-6.55-.84,3.27,3.27,0,1,0-.14,6.53c1,0,2,0,2.93,0,.68.09,1.48.14,2.11.17l-.09,0a9.29,9.29,0,0,0,1,.08c.62,0,2.31.21,2.94.26,4.61.66,10.17,1.15,13.78,4a1.78,1.78,0,0,1,.47.67c-.22,2.44-2.55,4.63-4.48,6.15a2,2,0,0,0,.67,3.52c5.88,1.9,7.71,8.83,8.12,14.51.77-4.8.64-10.3-2.2-14.62A12.59,12.59,0,0,0,167.1,142.64Z" fill="#eb6100"/>
    <path d="M154.24,161a2,2,0,0,0-1.15-.43,2.08,2.08,0,0,0-2.13,2.31c-.17,2.32-.64,5.47-2.47,6.85a6.33,6.33,0,0,1-3.53-1.23,43.91,43.91,0,0,1-8.47-7.7c-.42-.48-1.54-1.77-1.92-2.24-.21-.27-.42-.54-.66-.8l.07.06c-.38-.5-.89-1.12-1.36-1.63-.58-.74-1.11-1.53-1.7-2.37a3.27,3.27,0,1,0-5.25,3.89,45.34,45.34,0,0,0,3.49,4.07l1,.79a2.58,2.58,0,0,1-.87-.66l.09.09c.71.83,2,2.12,2.75,2.92,4.19,4,11.88,11.81,18.34,9.36,3.16-1.68,4.33-5.18,4.72-8.56a14.11,14.11,0,0,0,7.53-1,25.14,25.14,0,0,0,8.06-5.55,24,24,0,0,1-8.65,3.44A10,10,0,0,1,154.24,161Z" fill="#eb6100"/>
    <path d="M127,125.28a42.78,42.78,0,0,0-2-12.55c-4.06-12.63-12-16.67-20-31.21a81.56,81.56,0,0,1-5-11.15,82.1,82.1,0,0,1-5,11.15c-7.92,14.54-15.9,18.58-20,31.21a42.78,42.78,0,0,0-2,12.55h0a27,27,0,0,0,54,0Z" fill="#0b318f"/>
  </g>
</svg>
