<svg xmlns="http://www.w3.org/2000/svg" width="200" height="200" viewBox="0 0 200 200">
  <g>
    <path d="M75.41,75.52A81.83,81.83,0,0,0,58,67.1a83,83,0,0,0-16.78-3.91,51.36,51.36,0,0,1-.92-10.35,52.15,52.15,0,0,1,1.34-11.05,57,57,0,0,1,10.6-1.52,57.88,57.88,0,0,1,10.84.5A83,83,0,0,0,75.41,75.52Z" fill="#fcc800"/>
    <path d="M124.73,75.66a82.6,82.6,0,0,0,8.52-17.37,81.82,81.82,0,0,0,4-16.76,52.05,52.05,0,0,1,21.4.54,57.33,57.33,0,0,1,.9,21.45,82.88,82.88,0,0,0-34.81,12.14Z" fill="#fcc800"/>
    <path d="M124.32,125a82.52,82.52,0,0,0,34.05,12.71,51,51,0,0,1,.8,10.36,52,52,0,0,1-1.45,11,57.95,57.95,0,0,1-21.46.78,82.41,82.41,0,0,0-4-18.09A83.51,83.51,0,0,0,124.32,125Z" fill="#fcc800"/>
    <path d="M75.31,124.6a82.57,82.57,0,0,0-12.46,34.15,51.85,51.85,0,0,1-21.41-.51,57.61,57.61,0,0,1-.93-21.45,82.67,82.67,0,0,0,34.8-12.19Z" fill="#fcc800"/>
    <circle cx="100" cy="100.11" r="12.01" fill="#fcc800"/>
    <path d="M178.48,111.13a1.75,1.75,0,0,0-.16-.2h0a18.71,18.71,0,0,1-2.69-16.73A19,19,0,0,1,178.29,89h0c.05-.07.11-.13.15-.2a18.73,18.73,0,0,0,2.74-11.72A21.77,21.77,0,0,0,173,64.34c-7.09-5.49-16.58-4.22-24.62-2a66.54,66.54,0,0,0-20.7,10.41c7.19-9.7,12.09-20.94,12-33.19A21.2,21.2,0,0,0,135.54,27a22,22,0,0,0-12.73-8.17A18.77,18.77,0,0,0,111,21.63l-.2.16v0a18.69,18.69,0,0,1-21.95.05v0l-.2-.16A18.79,18.79,0,0,0,77,18.94a21.77,21.77,0,0,0-12.72,8.14c-5.49,7.09-4.22,16.58-2,24.63a66.51,66.51,0,0,0,10.4,20.7c-9.69-7.19-20.93-12.1-33.19-12a21.09,21.09,0,0,0-12.48,4.16A22.05,22.05,0,0,0,18.74,77.3a18.84,18.84,0,0,0,2.78,11.8l.16.2h0A18.68,18.68,0,0,1,24.35,106a18.92,18.92,0,0,1-2.64,5.23h0a1.59,1.59,0,0,0-.15.21,18.76,18.76,0,0,0-2.74,11.72A21.75,21.75,0,0,0,27,135.88c7.09,5.49,16.58,4.22,24.62,2a66.3,66.3,0,0,0,20.7-10.4c-7.19,9.7-12.09,20.93-12,33.19a21.17,21.17,0,0,0,4.17,12.48,22,22,0,0,0,12.73,8.18A18.78,18.78,0,0,0,89,178.59c.07,0,.13-.1.2-.15h0a18.69,18.69,0,0,1,21.95,0h0c.07.05.13.11.2.15a18.8,18.8,0,0,0,11.72,2.75,21.87,21.87,0,0,0,12.72-8.14c5.49-7.1,4.22-16.58,2-24.63a66.3,66.3,0,0,0-10.4-20.7c9.69,7.19,20.93,12.09,33.19,12a21.16,21.16,0,0,0,12.48-4.16,22.11,22.11,0,0,0,8.18-12.74A18.8,18.8,0,0,0,178.48,111.13ZM175,121.69c-.12,1.92-1.23,3.86-2.34,5.61-4.9,7.93-14.92,7.66-23.05,6-13.06-2.86-24.37-10.53-34.35-19.34q-1.56-1.47-3.17-2.87l-.77-.72a.62.62,0,0,0-.83-.06.39.39,0,0,0-.11.06.67.67,0,0,0,0,.95l.6.68q1.41,1.69,2.91,3.34a120.8,120.8,0,0,1,10.3,14.08c4.85,7.9,8.64,16.52,9.68,25.77,1,6.7-.22,13.7-6.33,17.48A14.58,14.58,0,0,1,122.3,175a12.47,12.47,0,0,1-7.49-1.87,24.6,24.6,0,0,0-29.33.06,12.28,12.28,0,0,1-7,1.92c-1.93-.11-3.87-1.23-5.62-2.33-7.93-4.9-7.66-14.93-6-23,2.86-13.07,10.53-24.38,19.35-34.36q1.47-1.56,2.86-3.16l.73-.78a.64.64,0,0,0,.06-.83,1.05,1.05,0,0,0-.07-.11.69.69,0,0,0-.95,0l-.68.61c-1.12.94-2.24,1.9-3.34,2.9A120.38,120.38,0,0,1,70.7,124.2c-7.91,4.85-16.52,8.65-25.77,9.68-6.71,1-13.71-.22-17.48-6.33a14.61,14.61,0,0,1-2.29-5.14A12.47,12.47,0,0,1,27,114.92,24.54,24.54,0,0,0,27,85.6a12.49,12.49,0,0,1-1.92-7.06c.12-1.93,1.23-3.86,2.34-5.62,4.9-7.92,14.92-7.65,23-6C63.5,69.78,74.81,77.46,84.8,86.27c1,1,2.08,1.93,3.16,2.87l.78.72a.63.63,0,0,0,.82.06.41.41,0,0,0,.11-.07.67.67,0,0,0,0-.95c-.21-.22-.4-.45-.6-.68-.94-1.12-1.91-2.24-2.91-3.34a119.85,119.85,0,0,1-10.3-14.07C71.06,62.9,67.27,54.29,66.23,45c-1-6.71.22-13.71,6.33-17.48a14.41,14.41,0,0,1,5.14-2.28,12.28,12.28,0,0,1,7.49,1.87,24.58,24.58,0,0,0,29.33-.07,12.35,12.35,0,0,1,7-1.91c1.93.11,3.87,1.22,5.62,2.33,7.93,4.9,7.66,14.92,6,23-2.86,13.06-10.53,24.37-19.35,34.36-1,1-1.93,2.09-2.87,3.16-.24.26-.47.52-.72.78a.63.63,0,0,0-.06.82,1.05,1.05,0,0,0,.07.11.67.67,0,0,0,.95,0l.68-.6c1.12-.94,2.24-1.91,3.34-2.91A120.29,120.29,0,0,1,129.3,76c7.91-4.86,16.52-8.65,25.77-9.69,6.71-1,13.71.23,17.48,6.34a14.31,14.31,0,0,1,2.29,5.13,12.3,12.3,0,0,1-.21,3.31A12.59,12.59,0,0,1,173,85.31a24.54,24.54,0,0,0,.06,29.32A12.47,12.47,0,0,1,175,121.69Z" fill="#00a29a"/>
    <path d="M104,86.11C105.57,76.25,107,67,107,66A7.22,7.22,0,0,0,92.6,66c0,1,1.48,10.28,3.09,20.14A14.69,14.69,0,0,1,104,86.11Z" fill="#00a29a"/>
    <path d="M114.17,104.25c9.87,1.62,19.14,3.1,20.14,3.1a7.22,7.22,0,1,0,0-14.44c-1,0-10.28,1.47-20.14,3.08A14.6,14.6,0,0,1,114.17,104.25Z" fill="#00a29a"/>
    <path d="M95.68,114.11c-1.63,9.86-3.11,19.13-3.12,20.14a7.22,7.22,0,0,0,14.44,0c0-1-1.46-10.28-3.06-20.14A14.69,14.69,0,0,1,95.68,114.11Z" fill="#00a29a"/>
    <path d="M85.83,96C76,94.32,66.7,92.83,65.69,92.83a7.22,7.22,0,1,0,0,14.44c1,0,10.28-1.45,20.15-3A14.69,14.69,0,0,1,85.83,96Z" fill="#00a29a"/>
    <path d="M67.16.24C65.3.19,21.48-.76,5.3,29.58A48,48,0,0,0-.16,50,17.51,17.51,0,0,0,4.47,63.23,11.89,11.89,0,0,0,12.8,67.1h.25A12.64,12.64,0,0,0,21.53,63a11,11,0,0,0,3.1-8c-.19-4.36-3.22-8.41-7.73-10.33a1.32,1.32,0,1,0-1,2.43c3.57,1.52,6,4.67,6.12,8a8.36,8.36,0,0,1-2.39,6A9.92,9.92,0,0,1,13,64.46a9.15,9.15,0,0,1-6.61-3.07,14.9,14.9,0,0,1-3.9-11.26,45.39,45.39,0,0,1,5.16-19.3c11-20.6,36.26-26,50.05-27.46A18.9,18.9,0,0,0,47,18h0A18.94,18.94,0,0,0,68.12,2.41a1.24,1.24,0,0,0,.32-.81A1.31,1.31,0,0,0,67.16.24Z" fill="#fcc800"/>
    <path d="M153,18h0A18.91,18.91,0,0,0,142.31,3.37c13.8,1.42,39.08,6.86,50.06,27.46a45.43,45.43,0,0,1,5.16,19.31,14.89,14.89,0,0,1-3.9,11.25A9.14,9.14,0,0,1,187,64.46a9.88,9.88,0,0,1-6.61-3.26,8.33,8.33,0,0,1-2.4-6c.14-3.35,2.55-6.5,6.12-8a1.32,1.32,0,0,0-1-2.43c-4.51,1.92-7.54,6-7.73,10.33a11,11,0,0,0,3.1,8A12.64,12.64,0,0,0,187,67.1h.25a11.89,11.89,0,0,0,8.33-3.87A17.5,17.5,0,0,0,200.16,50a48,48,0,0,0-5.46-20.42C178.52-.76,134.69.19,132.84.24a1.31,1.31,0,0,0-1.28,1.36,1.24,1.24,0,0,0,.32.81A19,19,0,0,0,153,18Z" fill="#fcc800"/>
    <path d="M47,182.21a18.94,18.94,0,0,0,10.72,14.65c-13.8-1.43-39.07-6.87-50-27.46a45.48,45.48,0,0,1-5.16-19.32,14.89,14.89,0,0,1,3.9-11.25A9.14,9.14,0,0,1,13,135.76,10,10,0,0,1,19.6,139a8.38,8.38,0,0,1,2.39,6c-.14,3.35-2.55,6.49-6.12,8a1.32,1.32,0,1,0,1,2.43c4.51-1.92,7.54-6,7.73-10.34a11,11,0,0,0-3.1-7.95,12.72,12.72,0,0,0-8.48-4.1A11.89,11.89,0,0,0,4.47,137,17.51,17.51,0,0,0-.16,150.23,48,48,0,0,0,5.3,170.64C20.23,198.64,58.67,200,66,200h1.15a1.32,1.32,0,0,0,1.28-1.36,1.24,1.24,0,0,0-.32-.81A18.94,18.94,0,0,0,47,182.21Z" fill="#fcc800"/>
    <path d="M187,133.12a12.72,12.72,0,0,0-8.48,4.1,11,11,0,0,0-3.1,7.95c.19,4.36,3.22,8.42,7.73,10.34a1.32,1.32,0,0,0,1-2.43c-3.57-1.53-6-4.67-6.12-8a8.35,8.35,0,0,1,2.4-6,10,10,0,0,1,6.61-3.26,9.22,9.22,0,0,1,6.61,3.07,14.9,14.9,0,0,1,3.9,11.26,45.47,45.47,0,0,1-5.16,19.31c-11,20.59-36.24,26-50,27.45A18.93,18.93,0,0,0,153,182.21a19,19,0,0,0-21.16,15.6,1.25,1.25,0,0,0-.32.82,1.32,1.32,0,0,0,1.28,1.36H134c7.34,0,45.79-1.37,60.71-29.36a48,48,0,0,0,5.46-20.4A17.52,17.52,0,0,0,195.53,137,11.85,11.85,0,0,0,187,133.12Z" fill="#fcc800"/>
  </g>
</svg>
