<svg xmlns="http://www.w3.org/2000/svg" width="200" height="200" viewBox="0 0 200 200">
  <g>
    <rect x="91.04" y="91.15" width="17.92" height="17.92" transform="translate(-41.5 100.03) rotate(-45)" fill="#fcc800"/>
    <path d="M124.69,21c-4.74,0-7.71-4.15-7.84-4.33A1.32,1.32,0,1,1,119,15.1s2.55,3.53,6.2,3.19c3.49-.32,5.82-3.88,6-7,.17-3.41-2.41-6.32-4.89-7.56C120.83,1,113.75,5.51,110.73,7.45a29.31,29.31,0,0,0-9.59,10.15,1.31,1.31,0,0,1-1.13.65h0a1.31,1.31,0,0,1-1.13-.65A29.5,29.5,0,0,0,89.28,7.45C86.25,5.51,79.17,1,73.72,3.73,71.25,5,68.66,7.88,68.83,11.29c.16,3.12,2.48,6.68,6,7,3.66.34,6.17-3.15,6.2-3.19a1.32,1.32,0,0,1,2.15,1.52c-.14.19-3.42,4.78-8.6,4.29-5-.46-8.13-5.19-8.35-9.49-.23-4.61,3-8.37,6.34-10C79.32-2,87.29,3.05,90.7,5.23a31.54,31.54,0,0,1,9.3,9.22,31.79,31.79,0,0,1,9.3-9.22c3.41-2.18,11.38-7.28,18.17-3.85,3.31,1.67,6.56,5.43,6.33,10-.22,4.3-3.4,9-8.35,9.49A6.56,6.56,0,0,1,124.69,21Z" fill="#0b318f"/>
    <path d="M189.16,133.92h-.47c-4.3-.22-9-3.4-9.49-8.35-.48-5.17,4.1-8.46,4.29-8.6a1.32,1.32,0,1,1,1.52,2.15s-3.53,2.55-3.19,6.2c.33,3.49,3.89,5.81,7,6,3.43.16,6.32-2.42,7.57-4.89,2.75-5.45-1.79-12.54-3.73-15.56a29.34,29.34,0,0,0-10.14-9.58,1.32,1.32,0,0,1,0-2.28,29.38,29.38,0,0,0,10.15-9.58c1.94-3,6.48-10.11,3.73-15.56-1.25-2.48-4.14-5.06-7.57-4.89-3.11.15-6.68,2.48-7,6-.34,3.66,3.15,6.18,3.19,6.21a1.31,1.31,0,0,1-1.51,2.15c-.2-.14-4.78-3.42-4.3-8.6.46-5,5.19-8.13,9.49-8.35,4.62-.21,8.37,3,10,6.33,3.43,6.79-1.67,14.76-3.85,18.16a31.66,31.66,0,0,1-9.21,9.31,31.63,31.63,0,0,1,9.21,9.3c2.18,3.4,7.28,11.37,3.86,18.16C197.12,130.78,193.56,133.92,189.16,133.92Z" fill="#0b318f"/>
    <path d="M77.54,200a11,11,0,0,1-5-1.15c-3.31-1.68-6.56-5.43-6.33-10,.22-4.31,3.4-9,8.35-9.5,5.19-.49,8.46,4.1,8.6,4.3A1.32,1.32,0,0,1,81,185.12s-2.54-3.52-6.2-3.19c-3.48.33-5.81,3.89-6,7-.17,3.41,2.42,6.31,4.89,7.56,5.45,2.75,12.53-1.79,15.56-3.73a29.25,29.25,0,0,0,9.58-10.14A1.29,1.29,0,0,1,100,182h0a1.32,1.32,0,0,1,1.14.65,29.41,29.41,0,0,0,9.59,10.15c3,1.94,10.11,6.48,15.56,3.73,2.47-1.25,5.06-4.15,4.89-7.57-.16-3.11-2.48-6.68-6-7-3.66-.33-6.17,3.15-6.2,3.19a1.32,1.32,0,0,1-2.15-1.52c.14-.19,3.42-4.79,8.6-4.29,5,.46,8.13,5.19,8.35,9.49.23,4.61-3,8.37-6.34,10-6.78,3.43-14.75-1.67-18.16-3.85a31.63,31.63,0,0,1-9.3-9.21,31.63,31.63,0,0,1-9.3,9.21C88.12,196.65,82.89,200,77.54,200Z" fill="#0b318f"/>
    <path d="M10.85,133.93c-4.4,0-8-3.13-9.58-6.34C-2.16,120.8,3,112.83,5.13,109.43a31.54,31.54,0,0,1,9.21-9.31,31.43,31.43,0,0,1-9.22-9.3c-2.18-3.4-7.28-11.37-3.86-18.16,1.68-3.32,5.44-6.55,10.05-6.33,4.3.21,9,3.39,9.49,8.34.48,5.16-4.1,8.46-4.29,8.6A1.32,1.32,0,1,1,15,81.12s3.53-2.55,3.19-6.2c-.33-3.49-3.89-5.81-7-6-3.43-.17-6.32,2.42-7.57,4.9C.86,79.3,5.4,86.38,7.34,89.4A29.19,29.19,0,0,0,17.49,99a1.32,1.32,0,0,1,0,2.28,29.32,29.32,0,0,0-10.15,9.59C5.4,113.87.87,121,3.62,126.4c1.25,2.48,4.15,5.08,7.56,4.89,3.12-.15,6.68-2.48,7-6,.34-3.66-3.16-6.18-3.19-6.2A1.32,1.32,0,0,1,16.51,117c.19.14,4.78,3.42,4.29,8.6-.46,5-5.18,8.14-9.49,8.35Z" fill="#0b318f"/>
    <path d="M104,87.25l-4-4-4,4-.59-2.19C91.62,71,85.24,47,85.24,44.48a14.34,14.34,0,0,1,1.38-6.21,14.72,14.72,0,0,1,5.95-6.47c0-.22,0-.43,0-.65a7.35,7.35,0,0,1,14.69,0c0,.22,0,.43,0,.65a14.64,14.64,0,0,1,7.33,12.68c0,2.78-6.24,26.6-10,40.56ZM99.89,26.44a4.73,4.73,0,0,0-4.72,4.71,5,5,0,0,0,.13,1.07l.24,1-.94.46A12.12,12.12,0,0,0,89,39.39a11.8,11.8,0,0,0-1.13,5.09c0,1.55,3.72,16.25,9.51,37.69L100,79.55l2.61,2.61c5.67-21.31,9.29-36,9.29-37.68a12,12,0,0,0-1.22-5.27,12.15,12.15,0,0,0-5.51-5.51l-.94-.46.24-1a5,5,0,0,0,.13-1.07A4.72,4.72,0,0,0,99.89,26.44Z" fill="#eb6100"/>
    <path d="M155.63,114.73h0c-2.77,0-26.59-6.29-40.55-10l-2.2-.59,4-4-4-4,2.2-.59c14.05-3.78,38-10.12,40.58-10.12h0a14.46,14.46,0,0,1,6.21,1.38,14.74,14.74,0,0,1,6.46,6c.22,0,.43,0,.65,0a7.35,7.35,0,0,1,7.33,7.35,7.34,7.34,0,0,1-7.34,7.33,4.72,4.72,0,0,1-.66,0,14.74,14.74,0,0,1-6.26,5.83A14.54,14.54,0,0,1,155.63,114.73Zm-37.68-12c21.31,5.7,36,9.34,37.66,9.35a12,12,0,0,0,10.8-6.72l.46-.93,1,.24a5.08,5.08,0,0,0,1.07.12h0a4.69,4.69,0,0,0,4.71-4.7,4.72,4.72,0,0,0-4.7-4.72h0a4.39,4.39,0,0,0-1.06.13l-1,.23-.46-.94a12.12,12.12,0,0,0-5.68-5.61,11.77,11.77,0,0,0-5.09-1.13c-1.55,0-16.25,3.69-37.71,9.44l2.63,2.63Z" fill="#eb6100"/>
    <path d="M99.9,176.41h0a7.34,7.34,0,0,1-7.32-7.36c0-.22,0-.43,0-.65a14.75,14.75,0,0,1-5.81-6.26,14.46,14.46,0,0,1-1.48-6.45c0-2.77,6.32-26.58,10.09-40.52L96,113l4,4,4-4,.59,2.19c3.76,14.07,10.07,38.06,10.06,40.6a14.47,14.47,0,0,1-1.4,6.21,14.74,14.74,0,0,1-6,6.46c0,.21,0,.43,0,.64A7.36,7.36,0,0,1,99.9,176.41Zm-2.57-58.35c-5.72,21.29-9.39,36-9.4,37.64A12,12,0,0,0,89.14,161a12.1,12.1,0,0,0,5.49,5.53l.93.46-.24,1a5,5,0,0,0-.13,1.07,4.71,4.71,0,0,0,4.7,4.72h0a4.72,4.72,0,0,0,4.72-4.7,5.12,5.12,0,0,0-.13-1.07l-.23-1,.94-.46a12.16,12.16,0,0,0,5.62-5.67,12,12,0,0,0,1.14-5.09c0-1.54-3.67-16.26-9.39-37.72l-2.63,2.62Z" fill="#eb6100"/>
    <path d="M44.31,114.61h0a14.33,14.33,0,0,1-6.21-1.4,14.74,14.74,0,0,1-6.44-6,4.86,4.86,0,0,1-.65,0,7.34,7.34,0,0,1,0-14.68,5.08,5.08,0,0,1,.68,0A14.8,14.8,0,0,1,38,86.79a14.55,14.55,0,0,1,6.37-1.47h.07c2.89,0,29.29,7.1,40.51,10.15l2.2.59-4,4,4,4-2.2.58C70.86,108.35,46.9,114.61,44.31,114.61Zm-11.2-10.34.45.94a12.23,12.23,0,0,0,5.67,5.63A11.77,11.77,0,0,0,44.32,112c1.54,0,16.26-3.64,37.73-9.33L79.44,100l2.62-2.6C60.78,91.66,46.1,88,44.43,88h-.06a11.86,11.86,0,0,0-5.22,1.2,12.1,12.1,0,0,0-5.54,5.48l-.46.93-1-.24a4.41,4.41,0,0,0-1.07-.13,4.71,4.71,0,1,0,0,9.42,8.15,8.15,0,0,0,1.07-.12Z" fill="#eb6100"/>
    <path d="M161.25,49.83a22.79,22.79,0,0,0-1.72,5.26,14.65,14.65,0,0,0-3.76-7.61c-5,4.65-5,12.78-.16,18.37-4.93,8.77-12.42,16-20.68,21.69-6,4.12-12.91,6.2-20,7.93l.9,2.73c3.37-1.12,7.24-1.37,10.74-2.4,14.92-3.64,28.88-13.72,34.75-28.24a33,33,0,0,0,2.14-8.64c.29-2.66.08-5.41.83-7.87,1.39-5.28,6.09-8.39,10.65-10.93A18.11,18.11,0,0,0,161.25,49.83Z" fill="#0b318f"/>
    <path d="M134.51,44.68c5.58,4.81,13.65,4.79,18.29-.17h0a14.67,14.67,0,0,0-7.44-3.77,23,23,0,0,0,5.06-1.65,18,18,0,0,0,9.8-13.76c-2.54,4.58-5.71,9.29-11,10.67-3.45.93-7.29.4-10.9,1.29a38.31,38.31,0,0,0-15.91,7.76C109.08,55.81,105,68.93,102,85.06l2.5.6c1-3.51,2.12-7,3.37-10.45C112.34,63.11,123.25,51,134.51,44.68Z" fill="#0b318f"/>
    <path d="M150.49,161.06a22.62,22.62,0,0,0-5.17-1.64,14.61,14.61,0,0,0,7.59-3.81c-4.67-5-12.8-5-18.37-.06-7.43-4.05-13.59-10.12-18.95-16.62-5.65-7-9.18-15.53-11-24.26l-3,.73c1.1,3.59,1.86,7.19,2.8,10.82,3.65,15,13.71,29.08,28.33,35a33.4,33.4,0,0,0,11.58,2.34,20.89,20.89,0,0,1,5.06.6,15.23,15.23,0,0,1,8.16,6c1,1.45,1.88,3.05,2.91,4.65a14.65,14.65,0,0,0-1.65-5.41A17.83,17.83,0,0,0,150.49,161.06Z" fill="#0b318f"/>
    <path d="M164.39,149.1c-1-3.38-.47-7.27-1.33-10.78a38,38,0,0,0-7.66-15.81,50.29,50.29,0,0,0-18.08-14.17c-6.85-3.31-14.3-4.52-21.58-6.34l-.67,2.86A75.65,75.65,0,0,1,125.48,108a54.93,54.93,0,0,1,17.62,11.23,60.59,60.59,0,0,1,12.52,15.13c-4.8,5.6-4.74,13.67.25,18.29a14.69,14.69,0,0,0,3.73-7.47,22.07,22.07,0,0,0,1.73,5.18A18.08,18.08,0,0,0,175.09,160C170.52,157.44,165.81,154.36,164.39,149.1Z" fill="#0b318f"/>
    <path d="M44.77,153.3c4.95-4.7,4.89-12.82,0-18.37,3.95-7.35,9.89-13.47,16.27-18.81,6.86-5.73,15.29-9.24,24-11.34l-.77-2.88c-3.54,1.1-7.11,1.82-10.75,2.79-14.88,3.8-28.74,14-34.47,28.59a33,33,0,0,0-2,8.66c-.27,2.67,0,5.41-.75,7.88a15.15,15.15,0,0,1-5.93,8.12c-1.44,1.05-3,1.88-4.61,2.91A14.29,14.29,0,0,0,31,159.19,18.1,18.1,0,0,0,39.26,151a22.32,22.32,0,0,0,1.67-5.28A14.57,14.57,0,0,0,44.77,153.3Z" fill="#0b318f"/>
    <path d="M95.21,115.06c-.48,1.89-.87,3.71-1.33,5.45a53.1,53.1,0,0,1-12.76,22.8A60.76,60.76,0,0,1,66.06,155.9c-5.63-4.77-13.7-4.67-18.3.35a14.71,14.71,0,0,0,7.49,3.69,22.09,22.09,0,0,0-5.17,1.76,18.07,18.07,0,0,0-9.54,13.8c2.49-4.58,5.55-9.3,10.79-10.75,3.38-1,7.27-.51,10.78-1.39a38,38,0,0,0,15.77-7.74C87,148.39,93,137.87,95.69,126.69c1-3.51,1.25-7.36,2.42-10.73Z" fill="#0b318f"/>
    <path d="M95.43,74c-3.76-15-14.06-28.92-28.7-34.71a33.45,33.45,0,0,0-11.61-2.21,21,21,0,0,1-5.06-.56c-5.32-1.29-8.56-6-11.17-10.5a18,18,0,0,0,10,13.61,23.75,23.75,0,0,0,5.17,1.6,14.66,14.66,0,0,0-7.54,3.88C51.26,50.08,59.4,50,64.92,45,72.37,48.94,78.62,55,84,61.47c5.81,6.9,9.06,15.49,11.57,24.07l2.49-.63C97.26,81.24,96.37,77.68,95.43,74Z" fill="#0b318f"/>
    <path d="M74.56,92a54.86,54.86,0,0,1-17.91-10.6A60.19,60.19,0,0,1,44,66.46c4.74-5.65,4.6-13.73-.44-18.31A14.66,14.66,0,0,0,40,55.64a18.34,18.34,0,0,0-5.46-9.89A17.81,17.81,0,0,0,24.31,41c6.77,3.53,11.49,7.53,11.54,15.69.36,13.36,9.42,25,20.29,32,5.34,3.35,11.32,5.21,17.32,6.77,3.9.73,7.05,2.14,11.15,2.19V95.15C81.38,94.85,77.71,93,74.56,92Z" fill="#0b318f"/>
    <path d="M100,81.41l.87.87c1.76-10.5,5.58-33.46,5.58-35a6.45,6.45,0,0,0-12.9,0c0,1.52,3.82,24.48,5.58,35Z" fill="#fcc800"/>
    <path d="M118.71,100.12l-.87.86c10.49,1.76,33.45,5.59,35,5.59a6.45,6.45,0,0,0,0-12.89c-1.53,0-24.49,3.81-35,5.57Z" fill="#fcc800"/>
    <path d="M100,118.82l-.86-.87c-1.77,10.49-5.6,33.45-5.6,35a6.45,6.45,0,0,0,12.9,0c0-1.53-3.81-24.49-5.57-35Z" fill="#fcc800"/>
    <path d="M81.3,100.1l.87-.87c-10.5-1.76-33.45-5.6-35-5.6a6.45,6.45,0,1,0,0,12.89c1.53,0,24.49-3.8,35-5.55Z" fill="#fcc800"/>
    <path d="M100,120.68,79.44,100.11,100,79.55l20.57,20.56ZM83.16,100.11,100,117l16.85-16.85L100,83.27Z" fill="#00a29a"/>
  </g>
</svg>
