<svg xmlns="http://www.w3.org/2000/svg" width="200" height="200" viewBox="0 0 200 200">
  <g>
    <path d="M72.64,53.26c-3.57-3.72-5.6-6.32-12.81-9a15.94,15.94,0,0,0-11.11,0A75.1,75.1,0,0,1,50.28,34a52,52,0,0,1,3.93-10.45,57.81,57.81,0,0,1,21.12,4.09c-3,3-4.11,4.93-4.38,10.77C70.61,45.77,71.05,48.56,72.64,53.26Z" fill="#fcc800"/>
    <path d="M127.4,53.29c1.52-4.93,2.8-8,1.65-15.58A15.92,15.92,0,0,0,123.61,28a74.59,74.59,0,0,1,9.76-3.63,51.72,51.72,0,0,1,11-1.65,57.36,57.36,0,0,1,6.69,20.45c-4-1.16-6.3-1.2-11.54,1.4C133,47.87,130.74,49.61,127.4,53.29Z" fill="#fcc800"/>
    <path d="M154,100.16c5-1.16,8.3-1.58,14.3-6.39A15.94,15.94,0,0,0,174,84.2a75.21,75.21,0,0,1,8,6.62,51.74,51.74,0,0,1,7,8.72,57.89,57.89,0,0,1-6.36,8.65,57.12,57.12,0,0,1-8,7.4c-1-4.07-2.13-6-7-9.27C161.48,102.25,158.86,101.2,154,100.16Z" fill="#fcc800"/>
    <path d="M126.89,146.65c3.53,3.76,5.55,6.38,12.73,9.14a15.9,15.9,0,0,0,11.1.06,74.47,74.47,0,0,1-1.66,10.29,51.75,51.75,0,0,1-4,10.41A57.76,57.76,0,0,1,124,172.24c3-2.92,4.15-4.88,4.49-10.72C128.85,154.16,128.44,151.37,126.89,146.65Z" fill="#fcc800"/>
    <path d="M73.18,146.69c-1.46,4.95-2.7,8-1.46,15.6a16,16,0,0,0,5.56,9.62,73.72,73.72,0,0,1-9.72,3.75,51.39,51.39,0,0,1-11,1.79,57.14,57.14,0,0,1-4.41-9.79,58.17,58.17,0,0,1-2.54-10.58c4,1.12,6.32,1.12,11.52-1.54C67.69,152.18,69.89,150.41,73.18,146.69Z" fill="#fcc800"/>
    <path d="M46,99.4c-5,1.15-8.3,1.57-14.31,6.37A15.89,15.89,0,0,0,26,115.33a75.51,75.51,0,0,1-8-6.63A51.52,51.52,0,0,1,11,100a57.25,57.25,0,0,1,14.36-16c1,4.07,2.11,6,7,9.29C38.53,97.3,41.14,98.35,46,99.4Z" fill="#fcc800"/>
    <circle cx="100" cy="99.82" r="12.04" fill="#fcc800"/>
    <path d="M187.29,52.14a3.16,3.16,0,0,0-2-3.51,38.29,38.29,0,0,0-26.46-.31,39,39,0,0,0-4.57,2c0-3.46-.92-7-3.91-9.07-4.32-2.8-9.46-.14-13.23,2a35.83,35.83,0,0,0-9,7.21c2.12-7.5,3.46-19.7-2.36-23.28-3.21-1.67-6.66-.77-9.62.9a38.19,38.19,0,0,0-14-27.74,3.14,3.14,0,0,0-4,0,38.09,38.09,0,0,0-14,27.73c-4-2.27-9.24-3.05-12.32,1a11.72,11.72,0,0,0-2,5.32,38.42,38.42,0,0,0,0,10,35.51,35.51,0,0,0,1.23,5.61c-5.49-5.52-14.91-12.27-20.74-9.15-3.06,1.93-4,5.36-4.08,8.77a38.08,38.08,0,0,0-31-1.94,3.13,3.13,0,0,0-2,3.48A38.27,38.27,0,0,0,26.08,74.36a37.24,37.24,0,0,0,4,3c-3,1.7-5.6,4.27-5.93,7.91-.28,5.13,4.58,8.28,8.31,10.49A36.45,36.45,0,0,0,43,99.85c-10.62,2.66-26.86,11.29-14.23,20.85.32.23.64.43,1,.63a38.14,38.14,0,0,0-17.17,25.86,3.16,3.16,0,0,0,2,3.52,38.24,38.24,0,0,0,26.46.4,38.13,38.13,0,0,0,4.58-2c0,3.46.89,7,3.88,9.09,4.3,2.81,9.46.17,13.23-2a36.46,36.46,0,0,0,9.46-7.71c-2.23,7.41-3.81,20.28,2.2,24,3.21,1.65,6.66.75,9.62-.93a38.17,38.17,0,0,0,14,27.72,3.16,3.16,0,0,0,4,0,38.12,38.12,0,0,0,14-27.76c4,2.26,9.24,3,12.32-1a11.68,11.68,0,0,0,2-5.32,38,38,0,0,0,0-10,36.63,36.63,0,0,0-1.46-6.27c5.45,5.56,15.32,12.74,21.31,9.49,3-2,4-5.4,4-8.8a38.19,38.19,0,0,0,31,1.71,3.16,3.16,0,0,0,2-3.5,38.23,38.23,0,0,0-13-23,38.69,38.69,0,0,0-4.06-2.93c3-1.71,5.56-4.31,5.87-8,.24-5.13-4.65-8.24-8.39-10.42a35.89,35.89,0,0,0-10.05-4c10.61-2.82,26.2-11.4,13.7-20.78-.32-.22-.64-.43-1-.62A38.15,38.15,0,0,0,187.29,52.14Zm-22.4,24.32a2,2,0,0,0,.28,3.64A16.35,16.35,0,0,1,168.91,82c4.06,2.88,3.77,5.24,0,8.22a39.52,39.52,0,0,1-16.38,7.17c-2,.37-4.1.64-6.17.86-4.11-.1-8.19.09-12.23.27-2.51.12-5,.27-7.52.42-3.84,0-7.67-.11-11.46-.12a.65.65,0,0,0-.46,1.13.63.63,0,0,0,.45,1q6.78,0,13.55,0c4.94.25,9.87.38,14.82.2,6.22.25,12.41,1,18.08,3.52,5,2.53,15.3,7.55,7.3,13.16a17,17,0,0,1-3.73,2,2,2,0,0,0-.27,3.5,33.41,33.41,0,0,1,6.2,4.81,32.52,32.52,0,0,1,9.19,18,32.61,32.61,0,0,1-27.4-2,2,2,0,0,0-3,2.07,16.4,16.4,0,0,1,.26,4.17c-.44,5-2.63,5.89-7.12,4.11A39.52,39.52,0,0,1,128.55,144c-1.75-2.06-3.37-4.23-4.94-6.45-1.73-3-3.61-5.94-5.42-8.8-1-1.54-2-3.06-3-4.59-2.26-3.92-4.45-7.87-6.69-11.74a.66.66,0,0,0-1.22.21.63.63,0,0,0-.72.91q4.27,7.29,8.46,14.64c1.23,2.31,2.51,4.6,3.85,6.85,3.58,6.49,7,13.2,7.69,20.59.3,5.58,1.11,17-7.75,12.9a17.37,17.37,0,0,1-3.58-2.24,1.92,1.92,0,0,0-1.18-.42,2,2,0,0,0-2,1.93,33.15,33.15,0,0,1-1.07,7.77,32.51,32.51,0,0,1-11,17,32.58,32.58,0,0,1-12-24.75,2,2,0,0,0-3.29-1.54,16.3,16.3,0,0,1-3.49,2.32c-4.52,2.09-6.41.67-7.11-4.12A39.33,39.33,0,0,1,76,146.59a98.22,98.22,0,0,1,4.8-11c1-1.89,2-3.78,3-5.67.17-.34.34-.68.52-1,2.91-5.21,6-10.32,9-15.42a.66.66,0,0,0-.86-.93.63.63,0,0,0-1.16-.26q-4.77,8.25-9.63,16.42c-4.81,7.85-9.45,16.37-17.08,21.76-4.71,3-14.24,9.39-15-.36a17.19,17.19,0,0,1,.18-4.22,2,2,0,0,0-2.89-2,33,33,0,0,1-7.27,2.91,32.6,32.6,0,0,1-20.17-1.18A32.58,32.58,0,0,1,35,123a2,2,0,0,0-.26-3.65A16.11,16.11,0,0,1,31,117.43c-1.78-1.32-3.77-3.14-2.6-5.34,2.23-3.46,6.62-5.58,10.39-7.35a50.06,50.06,0,0,1,16.1-3.64c3.69.07,7.34-.07,11-.21,1.72-.06,3.45-.16,5.17-.24,4.6,0,9.21,0,13.81.15a.66.66,0,0,0,.44-1.16.63.63,0,0,0-.41-1.08q-8.25,0-16.48-.1c-2.92-.13-5.85-.2-8.78-.17-7.25-.2-14.57-.73-21.16-3.77-5-2.57-15.25-7.66-7.2-13.21a16.18,16.18,0,0,1,3.74-2,2,2,0,0,0,.95-.81,2,2,0,0,0-.65-2.7A33.43,33.43,0,0,1,29.16,71,32.57,32.57,0,0,1,20.1,52.94a32.59,32.59,0,0,1,27.38,2.17,2,2,0,0,0,3-2,16.4,16.4,0,0,1-.24-4.17c.48-5,2.68-5.88,7.15-4.06A39.51,39.51,0,0,1,71.79,55.48C73,57,74.21,58.53,75.35,60.1c2,3.74,4.32,7.33,6.52,10.81,1.43,2.25,2.89,4.48,4.36,6.7,1.8,3.21,3.57,6.44,5.36,9.6a.66.66,0,0,0,1.21-.14.63.63,0,0,0,.67-.92Q90.23,80.6,87.06,75c-2.43-4.82-5-9.56-7.86-14.14C76.45,55.55,74.13,50,73.55,44c-.29-5.58-1.08-17,7.77-12.89a16.94,16.94,0,0,1,3.57,2.25,2,2,0,0,0,1.18.42,2,2,0,0,0,2-1.93,33.54,33.54,0,0,1,1.08-7.76,32.61,32.61,0,0,1,11-16.94,32.6,32.6,0,0,1,12,24.78,2,2,0,0,0,3.29,1.54,16.25,16.25,0,0,1,3.49-2.31c4.52-2.08,6.42-.65,7.11,4.13a39.49,39.49,0,0,1-2,17.78c-1,2.63-2,5.21-3.24,7.76-1.7,2.91-3.25,5.88-4.79,8.83-.78,1.49-1.54,3-2.3,4.5-2.34,4-4.76,8-7.07,12a.66.66,0,0,0,.8,1,.63.63,0,0,0,1.15.19q4.47-7.8,9-15.55,1.48-2.4,2.9-4.84c4-6.67,8.27-13.36,14.63-17.88,4.7-3,14.2-9.44,15,.31a16.63,16.63,0,0,1-.17,4.21,2,2,0,0,0,2.9,2,33.54,33.54,0,0,1,7.27-2.93,32.53,32.53,0,0,1,20.17,1.11A32.6,32.6,0,0,1,164.89,76.46Z" fill="#eb6100"/>
    <path d="M97,85h0A14.85,14.85,0,0,1,103,85h0a34.49,34.49,0,0,0,1.51-5.54,34,34,0,0,0,.41-9.68c-.24-2.51-.64-3.65-2.11-9.08-.68-2.53-1.66-6.21-2.79-10.75-1.13,4.54-2.11,8.22-2.79,10.75-1.47,5.43-1.87,6.57-2.11,9.08a34,34,0,0,0,.41,9.68A34.49,34.49,0,0,0,97,85Z" fill="#fcc800"/>
    <path d="M111.36,89.88h0a15.28,15.28,0,0,1,1.74,2.43A16.07,16.07,0,0,1,114.32,95h0a33.39,33.39,0,0,0,5.55-1.44,34.58,34.58,0,0,0,8.61-4.45c2.06-1.47,2.85-2.38,6.83-6.35,1.85-1.85,4.56-4.52,7.94-7.77-4.51,1.28-8.19,2.26-10.71,2.92-5.45,1.43-6.63,1.65-8.93,2.69a34.51,34.51,0,0,0-12.25,9.23Z" fill="#fcc800"/>
    <path d="M114.31,104.63h0a14.68,14.68,0,0,1-1.23,2.72,15.23,15.23,0,0,1-1.73,2.43h0a34.55,34.55,0,0,0,12.22,9.26c2.3,1,3.49,1.27,8.92,2.71,2.53.67,6.21,1.66,10.71,3-3.37-3.25-6.07-5.94-7.92-7.79-4-4-4.76-4.89-6.81-6.36a34.64,34.64,0,0,0-8.59-4.49A35.7,35.7,0,0,0,114.31,104.63Z" fill="#fcc800"/>
    <path d="M103.05,114.61h0a15.16,15.16,0,0,1-3,.3,14.53,14.53,0,0,1-3-.28h0a34,34,0,0,0-1.49,5.54,34.4,34.4,0,0,0-.37,9.69c.26,2.51.66,3.65,2.15,9.07.69,2.52,1.68,6.2,2.84,10.74,1.11-4.55,2.07-8.24,2.74-10.76,1.45-5.44,1.84-6.58,2.08-9.09a34.69,34.69,0,0,0-2-15.21Z" fill="#fcc800"/>
    <path d="M88.76,109.89h0a15.05,15.05,0,0,1-3-5.12h0a34.39,34.39,0,0,0-14.1,6.06c-2,1.49-2.82,2.4-6.75,6.42-1.83,1.87-4.51,4.58-7.85,7.86,4.49-1.33,8.16-2.35,10.68-3,5.42-1.49,6.61-1.73,8.9-2.79A35.08,35.08,0,0,0,84.76,114,33.68,33.68,0,0,0,88.76,109.89Z" fill="#fcc800"/>
    <path d="M85.73,94.9h0A16.23,16.23,0,0,1,87,92.18a15.86,15.86,0,0,1,1.76-2.41h0a35.47,35.47,0,0,0-4-4.1,34.87,34.87,0,0,0-8.15-5.26c-2.29-1.05-3.47-1.29-8.9-2.77-2.52-.69-6.19-1.71-10.68-3,3.34,3.28,6,6,7.86,7.84,3.94,4,4.72,4.94,6.76,6.42a34.56,34.56,0,0,0,8.56,4.55A34.19,34.19,0,0,0,85.73,94.9Z" fill="#fcc800"/>
  </g>
</svg>
