<svg xmlns="http://www.w3.org/2000/svg" width="200" height="200" viewBox="0 0 200 200">
  <g>
    <path d="M100,200a99.93,99.93,0,1,1,99.92-99.92A100,100,0,0,1,100,200ZM100,2.77a97.31,97.31,0,1,0,97.3,97.31A97.41,97.41,0,0,0,100,2.77Z" fill="#66b5e6"/>
    <circle cx="100" cy="100.08" r="11.91" fill="#fcc800"/>
    <path d="M91.85,87.58l.39.27a14.69,14.69,0,0,1,3.94-1.74,3.19,3.19,0,0,1-.06-.53,3.88,3.88,0,1,1,7.76,0,3.19,3.19,0,0,1-.06.53,14.32,14.32,0,0,1,4,1.76l.36-.29c2.06-1.49,4.6-3.75,4.6-6.29a4.58,4.58,0,0,0-3.86-4.53,4.59,4.59,0,0,0-3-8.08,4.64,4.64,0,0,0-1.45.24A21.7,21.7,0,0,0,100,62.48a22.08,22.08,0,0,0-4.45,6.44,4.59,4.59,0,0,0-4.43,7.84,4.58,4.58,0,0,0-3.86,4.53C87.26,83.83,89.76,86.14,91.85,87.58Z" fill="#66b5e6"/>
    <path d="M137.59,100.08a21.53,21.53,0,0,0-6.43-4.45,4.64,4.64,0,0,0,.24-1.45,4.6,4.6,0,0,0-8.08-3,4.6,4.6,0,0,0-4.53-3.86c-2.54,0-4.86,2.5-6.29,4.6l-.28.38A14.54,14.54,0,0,1,114,96.25a4.53,4.53,0,0,1,.53,0,3.88,3.88,0,0,1,0,7.75,4.53,4.53,0,0,1-.53,0,14.55,14.55,0,0,1-1.76,4c.09.13.2.24.29.37,1.49,2,3.75,4.59,6.29,4.59a4.6,4.6,0,0,0,4.53-3.85,4.6,4.6,0,0,0,8.08-3,4.7,4.7,0,0,0-.24-1.46A21.68,21.68,0,0,0,137.59,100.08Z" fill="#66b5e6"/>
    <path d="M108.15,112.58l-.39-.28a14,14,0,0,1-3.93,1.74,4.75,4.75,0,0,1,0,.53,3.88,3.88,0,0,1-7.76,0,3.19,3.19,0,0,1,.06-.53,14.32,14.32,0,0,1-4-1.76l-.36.3c-2.06,1.49-4.6,3.75-4.6,6.28a4.58,4.58,0,0,0,3.86,4.53,4.6,4.6,0,0,0,3,8.08,4.33,4.33,0,0,0,1.45-.24,22,22,0,0,0,4.45,6.44,21.57,21.57,0,0,0,4.45-6.44,4.33,4.33,0,0,0,1.45.24,4.6,4.6,0,0,0,3-8.08,4.58,4.58,0,0,0,3.85-4.53C112.74,116.32,110.24,114,108.15,112.58Z" fill="#66b5e6"/>
    <path d="M86,103.9a3,3,0,0,1-.53.06,3.88,3.88,0,0,1,0-7.76,4.53,4.53,0,0,1,.53,0,14.55,14.55,0,0,1,1.76-4c-.09-.13-.2-.24-.29-.37-1.49-2-3.75-4.59-6.29-4.59a4.6,4.6,0,0,0-4.53,3.86,4.59,4.59,0,0,0-8.08,3,4.64,4.64,0,0,0,.24,1.45,21.53,21.53,0,0,0-6.43,4.45,21.9,21.9,0,0,0,6.43,4.45,4.3,4.3,0,0,0-.23,1.44,4.58,4.58,0,0,0,8.07,3,4.6,4.6,0,0,0,4.53,3.86c2.54,0,4.86-2.5,6.29-4.6l.28-.38A14.54,14.54,0,0,1,86,103.9Z" fill="#66b5e6"/>
    <path d="M180.49,54.14a1.3,1.3,0,0,1-1.13-.65,92.55,92.55,0,0,0-32.78-32.77,1.31,1.31,0,0,1,1.33-2.26,95.25,95.25,0,0,1,33.71,33.71,1.31,1.31,0,0,1-.47,1.79A1.34,1.34,0,0,1,180.49,54.14Z" fill="#66b5e6"/>
    <path d="M19.51,54.14a1.34,1.34,0,0,1-.66-.18,1.31,1.31,0,0,1-.47-1.79A95.25,95.25,0,0,1,52.09,18.46a1.31,1.31,0,0,1,1.33,2.26A92.55,92.55,0,0,0,20.64,53.49,1.3,1.3,0,0,1,19.51,54.14Z" fill="#66b5e6"/>
    <path d="M147.25,181.87a1.31,1.31,0,0,1-.67-2.44,92.55,92.55,0,0,0,32.78-32.77,1.31,1.31,0,1,1,2.26,1.33,95.22,95.22,0,0,1-33.71,33.7A1.24,1.24,0,0,1,147.25,181.87Z" fill="#66b5e6"/>
    <path d="M52.75,181.87a1.24,1.24,0,0,1-.66-.18A95.22,95.22,0,0,1,18.38,148a1.31,1.31,0,1,1,2.26-1.33,92.55,92.55,0,0,0,32.78,32.77,1.31,1.31,0,0,1-.67,2.44Z" fill="#66b5e6"/>
    <path d="M184.5,89.34C181,86,177.21,81.87,173.33,78.89A43.43,43.43,0,0,0,168,75.4a21.28,21.28,0,0,0-2.85-1.46l-2.92-1.27a44.8,44.8,0,0,0-6.12-1.76A43.85,43.85,0,0,0,142,70.16c-1.09,0-3.54.59-4.64.78-1.48.32-3,.89-4.52,1.27-1.38.59-3,1.11-4.32,1.77l-3.41,1.82c-.42.3-1.51,1-1.93,1.29-.17.1-.33.22-.49.32.11-.16.23-.31.33-.47a26.57,26.57,0,0,0,1.65-2.61l1.46-2.74c.67-1.34,1.17-2.94,1.77-4.32.39-1.46,1-3,1.26-4.51.17-1.09.75-3.56.79-4.64.08-.78.18-2.36.25-3.14a52.05,52.05,0,0,0-.43-7.88,47.84,47.84,0,0,0-2.33-9.23c-.46-1-1.44-3.44-2-4.37-.76-1.27-1.54-2.95-2.41-4.14a46.25,46.25,0,0,0-3.92-5.07c-5.6-6.14-13.3-13.56-19.12-19.52C98.51,6.25,90.89,14,89.26,15.58c-3.33,3.5-7.47,7.28-10.44,11.16a44.4,44.4,0,0,0-3.5,5.36,21.16,21.16,0,0,0-1.46,2.84l-1.27,2.93A44.62,44.62,0,0,0,70.84,44a43.62,43.62,0,0,0-.76,14.14c0,1.09.6,3.54.79,4.64.31,1.48.88,3,1.26,4.51.59,1.39,1.11,3,1.78,4.32.24.47,1.6,3,1.82,3.42s1,1.5,1.28,1.93c.1.17.22.32.33.49-.16-.11-.31-.23-.48-.34a28.48,28.48,0,0,0-2.61-1.64L71.51,74c-1.33-.67-2.94-1.17-4.32-1.77-1.46-.39-3-1-4.51-1.27-1.09-.17-3.56-.75-4.64-.78-.78-.08-2.35-.19-3.14-.26a53.33,53.33,0,0,0-7.87.44,48.1,48.1,0,0,0-9.24,2.32c-1,.47-3.43,1.45-4.37,2-1.27.76-3,1.55-4.14,2.42A45.2,45.2,0,0,0,24.22,81c-6.15,5.6-13.57,13.29-19.53,19.11,1.49,1.5,9.19,9.12,10.81,10.74,3.51,3.33,7.29,7.48,11.17,10.45a43.51,43.51,0,0,0,5.35,3.5,22.45,22.45,0,0,0,2.85,1.45l2.92,1.28a46.22,46.22,0,0,0,6.12,1.75A43.85,43.85,0,0,0,58,130c1.09-.06,3.54-.6,4.64-.79,1.48-.32,3.05-.88,4.52-1.27,1.38-.59,3-1.11,4.32-1.77l3.41-1.82c.42-.3,1.51-1,1.93-1.29.17-.1.33-.22.49-.32-.11.16-.23.31-.33.47a27.81,27.81,0,0,0-1.65,2.61l-1.46,2.74c-.67,1.34-1.17,2.94-1.77,4.32-.39,1.46-1,3-1.26,4.51-.17,1.09-.75,3.56-.79,4.64-.08.78-.18,2.36-.25,3.14a52.05,52.05,0,0,0,.43,7.88,47.84,47.84,0,0,0,2.33,9.23c.46,1,1.44,3.44,2,4.37.76,1.27,1.54,3,2.41,4.15a46.13,46.13,0,0,0,3.92,5.06c5.6,6.14,13.3,13.56,19.12,19.53,1.49-1.49,9.11-9.2,10.74-10.81,3.33-3.51,7.47-7.29,10.44-11.17a44.4,44.4,0,0,0,3.5-5.36,21.16,21.16,0,0,0,1.46-2.84l1.27-2.93a44.21,44.21,0,0,0,1.75-6.11,43.62,43.62,0,0,0,.76-14.14c0-1.08-.6-3.53-.79-4.64-.31-1.48-.88-3-1.26-4.51-.59-1.38-1.11-3-1.78-4.32-.24-.46-1.6-3-1.82-3.42s-1-1.5-1.28-1.93c-.1-.17-.22-.32-.33-.48.16.1.31.22.48.33.74.47,1.82,1.27,2.61,1.65l2.74,1.45c1.33.67,2.94,1.17,4.32,1.77,1.46.4,3,1,4.51,1.27,1.09.17,3.56.75,4.64.79.78.08,2.35.18,3.14.25a52,52,0,0,0,7.87-.44,48.1,48.1,0,0,0,9.24-2.32c1-.46,3.43-1.44,4.37-2,1.27-.76,2.95-1.55,4.14-2.42a45.12,45.12,0,0,0,5.06-3.91c6.15-5.6,13.57-13.3,19.53-19.12C193.82,98.59,186.12,91,184.5,89.34Zm-12.89,25.28c-10.83,10.49-27.73,13.75-41.89,8.59-5.53-1.83-10.23-5.14-14.69-8.82-1.57-1.38-3.17-2.73-4.77-4.06h0c1.33,1.58,2.65,3.18,4,4.74,3.68,4.48,7,9.19,8.84,14.73.47,1.29.82,2.79,1.26,4.11.23,1.36.61,2.84.78,4.21.07,1,.39,3.26.34,4.25,0,.7,0,2.12,0,2.83-.38,12.18-6.12,22.64-15.11,30.62-2.19,2.12-7.05,7-10.42,10.3-4.63-4.6-10.64-10.38-14.55-14.44C75,160.86,71.71,144,76.87,129.79c1.83-5.52,5.14-10.22,8.81-14.69,1.39-1.56,2.73-3.17,4.07-4.77h0c-1.58,1.33-3.18,2.66-4.74,4-4.47,3.69-9.18,7-14.72,8.84-1.3.48-2.8.83-4.11,1.26-1.37.24-2.85.62-4.21.79-1,.06-3.26.39-4.25.33-.7,0-2.13,0-2.83,0-12.18-.38-22.65-6.13-30.62-15.11-2.13-2.19-7-7.06-10.3-10.42,4.6-4.64,10.38-10.64,14.43-14.56C39.22,75,56.12,71.78,70.28,76.94c5.53,1.83,10.23,5.15,14.69,8.82,1.57,1.38,3.17,2.73,4.77,4.06h0c-1.33-1.58-2.65-3.18-4-4.74-3.68-4.48-7-9.19-8.84-14.72-.47-1.3-.82-2.8-1.26-4.12-.23-1.36-.61-2.84-.78-4.21-.07-1-.39-3.26-.34-4.24,0-.71,0-2.13,0-2.83.38-12.19,6.12-22.65,15.11-30.63C91.76,22.21,96.62,17.38,100,14c4.63,4.59,10.64,10.37,14.55,14.43C125,39.29,128.29,56.2,123.13,70.36c-1.83,5.52-5.14,10.22-8.81,14.69-1.39,1.56-2.73,3.17-4.06,4.77h0c1.58-1.33,3.18-2.66,4.74-4,4.47-3.68,9.18-7,14.72-8.84,1.3-.47,2.8-.83,4.11-1.26,1.37-.24,2.85-.62,4.21-.79,1-.06,3.26-.39,4.25-.33.7,0,2.13,0,2.83,0,12.18.37,22.65,6.12,30.62,15.1,2.13,2.2,7,7.06,10.3,10.43C181.44,104.7,175.66,110.7,171.61,114.62Z" fill="#fcc800"/>
    <g>
      <path d="M37.89,38V75.69a42.38,42.38,0,0,1,22-3.15,28.74,28.74,0,0,1-11.1-7,11.43,11.43,0,0,1,7.42-3.18c-4.55-4.09-8-9.53-9-15.08,5.55,1,11,4.47,15.08,9a11.43,11.43,0,0,1,3.19-7.42,28.93,28.93,0,0,1,7,11.11,42.2,42.2,0,0,1,3.15-22Z" fill="#fcc800"/>
      <path d="M162.11,38H124.38a42.25,42.25,0,0,1,3.15,22,28.81,28.81,0,0,1,7-11.11,11.46,11.46,0,0,1,3.19,7.42c4.08-4.54,9.52-8,15.07-9-1.05,5.55-4.47,11-9,15.07a11.41,11.41,0,0,1,7.42,3.19,28.81,28.81,0,0,1-11.11,7,42.3,42.3,0,0,1,22,3.15Z" fill="#fcc800"/>
      <path d="M37.89,162.7V125a42.27,42.27,0,0,0,22,3.15,28.93,28.93,0,0,0-11.11,7,11.41,11.41,0,0,0,7.42,3.19c-4.54,4.09-8,9.52-9,15.08,5.55-1.05,11-4.48,15.08-9a11.38,11.38,0,0,0,3.18,7.42,28.81,28.81,0,0,0,7-11.11,42.39,42.39,0,0,0,3.15,22Z" fill="#fcc800"/>
      <path d="M162.1,162.7H124.38a42.26,42.26,0,0,0,3.14-22,28.83,28.83,0,0,0,7,11.1,11.39,11.39,0,0,0,3.19-7.42c4.09,4.55,9.53,8,15.08,9-1.05-5.55-4.47-11-9-15.08a11.43,11.43,0,0,0,7.42-3.18,28.74,28.74,0,0,0-11.1-7,42.37,42.37,0,0,0,22-3.15Z" fill="#fcc800"/>
    </g>
  </g>
</svg>
