<svg xmlns="http://www.w3.org/2000/svg" width="200" height="200" viewBox="0 0 200 200">
  <path d="M171.62,186.31a27.09,27.09,0,0,1-6.06,6.31c-.79.64-1.56,1.16-2.22,1.62a39.62,39.62,0,0,1-11,5.17,28.19,28.19,0,0,1-3,.59c-.64-.1-68.81-.11-68.81-.11a28.29,28.29,0,0,1-28.28-28.3l.13-143.1A15.33,15.33,0,0,0,37.1,13.4l0,0a18.88,18.88,0,0,0-13.42,5.46A19.5,19.5,0,0,1,28.59,6.25,19.59,19.59,0,0,1,42.76,0,19.33,19.33,0,0,1,56.19,5.52a19.24,19.24,0,0,1,5.54,12.07h.06A19.35,19.35,0,0,1,67.33,5.52,19.37,19.37,0,0,1,80.78,0,19.58,19.58,0,0,1,94.94,6.25a19.38,19.38,0,0,1,4.87,12.63,18.91,18.91,0,0,0-13.42-5.46l0,0A15.42,15.42,0,0,0,71.06,28.49l.22,143.15a9.49,9.49,0,0,0,9.77,9.29l66.54-.05a14.91,14.91,0,0,0,14.89-15A19,19,0,0,0,157,152.51a1.37,1.37,0,0,1,.27,0l0,0A19.6,19.6,0,0,1,170,157.4c5.85,5.28,6.2,12.38,6.28,14.24A23.54,23.54,0,0,1,171.62,186.31Z" fill="#231815"/>
</svg>
