<svg xmlns="http://www.w3.org/2000/svg" width="200" height="200" viewBox="0 0 200 200">
  <path d="M158.6,38V38A18.89,18.89,0,0,0,176.17,19a19.53,19.53,0,0,0-6.25-14.14A19.42,19.42,0,0,0,157.32,0a18.9,18.9,0,0,1,5.45,13.41v-.05a15.37,15.37,0,0,1-15.05,15.35H52.27A15.37,15.37,0,0,1,37.22,13.36v.05A18.9,18.9,0,0,1,42.68,0a19.42,19.42,0,0,0-12.6,4.87A19.53,19.53,0,0,0,23.83,19,18.89,18.89,0,0,0,41.4,38V38A18.91,18.91,0,0,0,23.83,57a19.57,19.57,0,0,0,6.25,14.15A19.33,19.33,0,0,0,42.68,76a18.86,18.86,0,0,1-5.45-13.4v0A15.31,15.31,0,0,1,52.27,47.36l38.15,0,0,152.68h19l0-152.68,38.29,0a15.31,15.31,0,0,1,15.05,15.27v0A18.86,18.86,0,0,1,157.32,76a19.33,19.33,0,0,0,12.6-4.86A19.57,19.57,0,0,0,176.17,57,18.91,18.91,0,0,0,158.6,38Z" fill="#231815"/>
</svg>
