<svg xmlns="http://www.w3.org/2000/svg" width="200" height="200" viewBox="0 0 200 200">
  <path d="M176.18,57a28.24,28.24,0,0,0-28.24-28.23l-67,0v-.09H52.29A15.38,15.38,0,0,1,37.23,13.37v0A18.94,18.94,0,0,1,42.69,0,19.46,19.46,0,0,0,30.08,4.87,19.57,19.57,0,0,0,23.83,19,18.93,18.93,0,0,0,41.41,38v.06A18.93,18.93,0,0,0,23.83,57a19.57,19.57,0,0,0,6.25,14.15A19.46,19.46,0,0,0,42.69,76a18.94,18.94,0,0,1-5.45-13.41v0A15.31,15.31,0,0,1,52.29,47.39h9.63v133.8H52.31a15.38,15.38,0,0,1-15.07-15.35v0a19,19,0,0,1,5.46-13.41,19.36,19.36,0,0,0-12.61,4.86c-5.83,5.25-6.16,12.31-6.25,14.16a23.39,23.39,0,0,0,4.61,14.56,29.8,29.8,0,0,0,8.22,7.88,38.88,38.88,0,0,0,10.9,5.13,28.88,28.88,0,0,0,4.78.77c.77,0,1.4,0,1.83,0h7.73V200H81v0h67a28.23,28.23,0,0,0,28.23-28.23v-38.5a28.09,28.09,0,0,0-7.27-18.9,28,28,0,0,0,7.27-18.88ZM81,47.48h67a9.25,9.25,0,0,1,9.25,9.25V95.61A9.35,9.35,0,0,1,147.8,105H119.22l-38.27,0Zm67,133.82H81V123.64l40.63,0h26a9.54,9.54,0,0,1,9.54,9.54v38.89A9.25,9.25,0,0,1,147.9,181.3Z" fill="#231815"/>
</svg>
