<svg xmlns="http://www.w3.org/2000/svg" width="200" height="200" viewBox="0 0 200 200">
  <path d="M176.19,171.66v-.1a18.92,18.92,0,0,0-18.07-19,.29.29,0,0,0-.16,0c-.25,0-.48,0-.65,0A19,19,0,0,1,162.78,166v0c0,.25,0,.5,0,.75a15.31,15.31,0,0,1-15,14.5H52.28a9.45,9.45,0,0,1-9.45-9.45V124a.34.34,0,0,1,.34-.33h66.44a15.39,15.39,0,0,1,15.08,15.37v0a19,19,0,0,1-4.91,12.84.33.33,0,0,0,.26.56,19,19,0,0,0,.47-38v-.06a18.95,18.95,0,0,0,17.6-19,18.94,18.94,0,0,0-18.07-19,.33.33,0,0,0-.26.56,18.93,18.93,0,0,1,4.91,12.84v0A15.34,15.34,0,0,1,109.61,105H43.17a.34.34,0,0,1-.34-.34V57a9.45,9.45,0,0,1,9.44-9.45l95.44-.18A15.39,15.39,0,0,1,162.79,62.7v0a19,19,0,0,1-4.91,12.84.33.33,0,0,0,.25.56A19.08,19.08,0,0,0,170.68,43.6a19.3,19.3,0,0,0-12.08-5.54V38a18.95,18.95,0,0,0,17.59-19A18.92,18.92,0,0,0,158.12,0a.33.33,0,0,0-.25.56,19,19,0,0,1,4.91,12.84v0a15.32,15.32,0,0,1-15.08,15.29H52.85A29.07,29.07,0,0,0,23.78,57.7V170.93A29.07,29.07,0,0,0,52.89,200s94,0,94.76,0a28.41,28.41,0,0,0,4.79-.76,39,39,0,0,0,10.91-5.14,30,30,0,0,0,8.23-7.89A23.42,23.42,0,0,0,176.19,171.66Z" fill="#231815"/>
</svg>
