<svg xmlns="http://www.w3.org/2000/svg" width="200" height="200" viewBox="0 0 200 200">
  <g>
    <path d="M130,41.22A42.51,42.51,0,0,0,99.9,28.75h0l-47.56,0A15.38,15.38,0,0,1,37.27,13.37l0,0A18.9,18.9,0,0,1,42.74,0,19.46,19.46,0,0,0,30.13,4.87,19.57,19.57,0,0,0,23.88,19,18.93,18.93,0,0,0,41.46,38V38A18.95,18.95,0,0,0,23.88,57a19.57,19.57,0,0,0,6.25,14.15A19.46,19.46,0,0,0,42.74,76a18.9,18.9,0,0,1-5.45-13.41l0,0A15.32,15.32,0,0,1,52.34,47.38l9.62.08V200H81V123.57h76.1V200h19V105a42.59,42.59,0,0,0-12.47-30.1Zm27.12,63.68H81V47.46H99.65a23.27,23.27,0,0,1,16.48,6.83l34.13,34.13a23.27,23.27,0,0,1,6.83,16.48Z" fill="#231815"/>
    <path d="M138.14,28.67v0A21.62,21.62,0,0,1,152.68,35l17.11,17.11A21.59,21.59,0,0,1,176.05,66h.07V28.67Z" fill="#231815"/>
  </g>
</svg>
