<svg xmlns="http://www.w3.org/2000/svg" width="200" height="200" viewBox="0 0 200 200">
  <path d="M150.9,114.4a56.59,56.59,0,0,0,25.16-47.08V57.16a28.49,28.49,0,0,0-28.51-28.49l-95.18,0a15.37,15.37,0,0,1-15-15.34v0A19,19,0,0,1,42.78,0a19.47,19.47,0,0,0-12.6,4.86A19.57,19.57,0,0,0,23.94,19a19.39,19.39,0,0,0,5.5,13.43A19.3,19.3,0,0,0,41.5,38V38A18.89,18.89,0,0,0,23.94,57,19.55,19.55,0,0,0,30.18,71.1,19.44,19.44,0,0,0,42.78,76a19,19,0,0,1-5.45-13.4v0a15.29,15.29,0,0,1,15-15.26H62V200H81l-.1-76,38.52,0h0A37.55,37.55,0,0,1,157,161.53l0,38.36h19V161.47A56.51,56.51,0,0,0,150.9,114.4Zm-31.52-9.5-38.48,0L81,47.31h66.55A9.49,9.49,0,0,1,157,56.8l0,10.52h0A37.63,37.63,0,0,1,119.38,104.9Z" fill="#231815"/>
</svg>
