<svg xmlns="http://www.w3.org/2000/svg" width="200" height="200" viewBox="0 0 200 200">
  <path d="M157.46,76.1a19.12,19.12,0,0,0,13.4-32.56A19.33,19.33,0,0,0,158.75,38v-.07a19,19,0,0,0,17.63-19,19.57,19.57,0,0,0-6.27-14.2A18.86,18.86,0,0,0,157.39.08a18.49,18.49,0,0,1,5.55,13.19v0a15.44,15.44,0,0,1-15.11,15.41l-95.66-.09a15.43,15.43,0,0,1-15.11-15.4v0A18.33,18.33,0,0,1,42.46,0,18.57,18.57,0,0,0,29.89,4.62a19.57,19.57,0,0,0-6.27,14.2,19,19,0,0,0,17.63,19v.07a19,19,0,0,0-17.63,19,19.58,19.58,0,0,0,6.27,14.2A19.4,19.4,0,0,0,42.54,76a19,19,0,0,1-5.48-13.45v0A15.35,15.35,0,0,1,52.17,47.28l38.28,0V181.24l-38.36-.1a15.29,15.29,0,0,1-14.37-10.85,15.11,15.11,0,0,1-.66-4.42v0a19,19,0,0,1,5.48-13.45h-.08l0,0a19.33,19.33,0,0,0-12.6,4.86,17.75,17.75,0,0,0-3.55,4.4l-.17.3-.34.63a20.28,20.28,0,0,0-2.21,8.92c0,.15,0,.37,0,.62A23.59,23.59,0,0,0,28.25,186a29.65,29.65,0,0,0,8.22,7.88A38.75,38.75,0,0,0,47.36,199l.33.08a11.63,11.63,0,0,0,4.48.92h95.66a11.6,11.6,0,0,0,5-1.16,39.31,39.31,0,0,0,10.71-5.08,29.8,29.8,0,0,0,8.22-7.88,23.62,23.62,0,0,0,4.62-13.75c0-.24,0-.45,0-.59a20,20,0,0,0-.94-5.82,18.48,18.48,0,0,0-5.33-8.54,19.42,19.42,0,0,0-12.6-4.87l.13.15h-.18a19,19,0,0,1,5.48,13.45v0a14.72,14.72,0,0,1-.07,1.49,15.36,15.36,0,0,1-15,13.67l-38.36.21V47.32l38.28,0a15.35,15.35,0,0,1,15.11,15.32v0A19,19,0,0,1,157.46,76.1Z" fill="#231815"/>
</svg>
